<svg version="1.1" id="Ñëîé_1" xmlns="http://www.w3.org/2000/svg" x="0" y="0" viewBox="0 0 814.98 670.98" xml:space="preserve"><style>.st1{fill:#9898ed}.st5{fill:#f0f0fc}.st6{fill:#ffd33f}.st8{fill:#232f6d}.st9{opacity:.43;fill:#0c25ba}.st12{fill:#212d60}.st14{fill:#474ab6}.st15{fill:#71d4ff}.st17{fill:#6278b7}.st22{fill:#ff969b}.st25{fill:#2a4280}.st36{fill:#fff}.st46{fill:#f7f7f9}.st50{fill:#4a5ea5}.st52{fill:#f74b9d}.st53{fill:#5a3b72}.st54,.st55{opacity:.2;fill:#9faffc}.st55{opacity:0}.st67{fill:#e9dbef}</style><switch><g><linearGradient id="SVGID_1_" gradientUnits="userSpaceOnUse" x1="675.018" y1="397.519" x2="676.492" y2="397.519"><stop offset="0" stop-color="#ffd33f"/><stop offset="1" stop-color="#ff7364"/></linearGradient><path d="M675.76 445.41c-.41 0-.74-.33-.74-.74v-94.31c0-.41.33-.74.74-.74s.74.33.74.74v94.31c-.01.41-.34.74-.74.74z" fill="url(#SVGID_1_)"/><path class="st1" d="M676.25 329.33c-.41 0-.74-.33-.74-.74V288.9l-94.43-53.82a.74.74 0 01-.37-.64v-34.88c0-.41.33-.74.74-.74s.74.33.74.74v34.45l94.43 53.82c.23.13.37.38.37.64v40.12c-.01.41-.34.74-.74.74zm-152.77-18.38c-.41 0-.74-.33-.74-.74V170.1c0-.41.33-.74.74-.74s.74.33.74.74v140.11c0 .41-.33.74-.74.74zm26.9 17.68c-.41 0-.74-.33-.74-.74V187.78c0-.41.33-.74.74-.74s.74.33.74.74v140.11c-.01.41-.34.74-.74.74z"/><path d="M647.47 325.05c-.15.01-.28.06-.4.13-.07 0 3.14-2.04 3.14-2.04.09.55.19 1.1.31 1.65l-3.05.26z" fill="#947baf"/><linearGradient id="SVGID_2_" gradientUnits="userSpaceOnUse" x1="672.614" y1="355.122" x2="682.5" y2="355.122"><stop offset="0" stop-color="#eaeaf9"/><stop offset="1" stop-color="#bebeed"/></linearGradient><path d="M673.18 353.03c3.52 1.03 6.65.68 9.07-.86l.25.31-9.89 5.6c.35-.29.57-.82.57-1.54v-3.51z" fill="url(#SVGID_2_)"/><linearGradient id="SVGID_3_" gradientUnits="userSpaceOnUse" x1="676.279" y1="293.436" x2="676.279" y2="356.728"><stop offset="0" stop-color="#eaeaf9"/><stop offset=".236" stop-color="#dbdbf5"/><stop offset=".659" stop-color="#c6c6ef"/><stop offset=".935" stop-color="#bebeed"/></linearGradient><path d="M701.76 342.68l-3.02-3.74c.4-1.62.64-3.4.64-5.38 0-1.67-.17-3.4-.49-5.14 0 0 3.13-1.78 3.13-1.79.75-.28.97-1.4.47-2.69l-2.51-6.45c-.2-.51-.48-.97-.81-1.35-.6-.71-1.34-1.16-1.97-1.1l-3.23.28c-2.41-4.18-5.44-7.96-8.83-10.91v-3.93c0-.53-.12-1.1-.32-1.63-.36-.97-.99-1.84-1.71-2.25l-5.03-2.9c-.61-.35-1.15-.3-1.53.05l-9.85 5.51-2.71-3.36c-.8-.99-1.77-1.38-2.41-1.05-.01-.05-11.79 6.66-11.79 6.66.65-.13 1.51.28 2.22 1.16l3.23 4c1.9-1.12 4.21-1.53 6.8-1.15.66.1 1.34.25 2.03.45v-3.96c0-.17.02-.33.04-.48.04-.21.07-.33.12-.45.07-.18.13-.28.19-.37.14-.18.28-.3.43-.38.01 0 1.45-.83 1.45-.83-.54.31-1.43.83-1.43.83.17-.08.36-.11.57-.09.14.03.23.04.32.07.11.04.23.09.34.16l5.03 2.9c.65.37 1.22 1.12 1.59 1.97.01.03.02.06.04.09.06.15.12.3.17.46.05.15.09.3.12.45.01.04.01.08.02.12.02.11.05.23.06.34.02.16.03.31.03.46v3.96c2.15 1.85 4.13 4.02 5.89 6.4.04.05.07.1.1.15.32.43.63.86.93 1.31l.33.51c.22.33.44.65.65.99.32.51.63 1.02.92 1.54l.19-.02 3.04-.26c.42-.04.89.16 1.34.5.12.09.24.2.36.32.11.11.22.24.33.36.07.09.15.18.22.28.08.11.15.22.22.33.03.05.06.11.09.17.09.16.17.32.23.49l2.51 6.45c.34.87.34 1.66.09 2.17-.05.1-.36.38-.43.46-.09.05-.18.08-.28.1l-.12.03-.58.05-2.57.22c.5 2.24.78 4.46.78 6.6 0 .49-.01.97-.04 1.43-.02.41-.07.8-.11 1.19-.01.05-.01.1-.01.15-.11.88-.27 1.7-.49 2.47-.02.08.86 1.17.86 1.17l2.18 2.7c.13.17.25.34.36.52.03.04.05.08.07.13.08.14.16.29.22.44.02.03.03.07.04.1.07.16.13.33.17.49.06.23.1.41.12.59.01.12.02.24.02.36 0 .17-.01.26-.03.35l-.03.15c-.02.06-.03.13-.05.18-.04.11-.09.21-.15.3l-2.51 3.55c-.03.05-.07.07-.11.11 0 0 11.52-6.49 11.52-6.5.23-.06.42-.18.57-.39l2.51-3.55c.24-.33.3-.82.24-1.36-.09-.74-.43-1.58-.99-2.27z" fill="url(#SVGID_3_)"/><path class="st5" d="M647.46 309.07l3.15 3.91c-.5 1.65-.77 3.55-.77 5.67 0 1.47.13 2.97.37 4.5.09.55.19 1.1.31 1.65l-3.05.26c-.15.01-.28.06-.4.13-.65.35-.82 1.42-.34 2.63l2.51 6.45c.56 1.43 1.81 2.54 2.78 2.46l2.99-.25c2.42 4.33 5.55 8.28 9.08 11.32v3.5c0 1.49.91 3.24 2.03 3.89l5.03 2.9c.58.33 1.1.31 1.47 0 .35-.29.57-.82.57-1.54v-3.5c3.52 1.03 6.65.68 9.07-.86l.25.31 2.73 3.39c.91 1.13 2.07 1.48 2.67.86.04-.04.08-.07.11-.11l2.51-3.55c.06-.09.11-.19.15-.3.02-.06.03-.12.05-.18l.03-.15c.01-.09.02-.19.02-.28 0-.18 0-.3-.02-.43a4.188 4.188 0 00-.3-1.08c-.01-.03-.03-.07-.04-.1a9.02 9.02 0 00-.22-.44c-.02-.04-.04-.08-.07-.13-.11-.18-.23-.35-.36-.52l-2.18-2.7-.88-1.09c.23-.86.39-1.68.51-2.56.01-.05.01-.1.01-.15.05-.39.09-.78.11-1.19.03-.46.04-.94.04-1.43 0-2.14-.28-4.36-.78-6.6l2.57-.22.58-.05c.04 0 .08-.02.12-.03.1-.02.2-.06.29-.11.08-.05.16-.11.23-.18.07-.08.14-.17.19-.27.26-.51.25-1.3-.09-2.17l-2.51-6.45c-.07-.17-.15-.33-.23-.49-.03-.06-.06-.11-.09-.17-.07-.12-.14-.22-.22-.33-.07-.1-.14-.19-.22-.28-.11-.13-.21-.25-.33-.36a3.45 3.45 0 00-.36-.32c-.45-.34-.92-.54-1.34-.5l-3.04.26-.19.02c-.3-.52-.61-1.03-.92-1.54-.21-.33-.43-.66-.65-.99l-.33-.51c-.3-.44-.61-.88-.93-1.31-.04-.05-.07-.1-.1-.15-1.77-2.38-3.75-4.54-5.87-6.38-.02-.02-.02-1.38-.02-1.38v-2.6c0-.15-.01-.31-.03-.46-.01-.11-.04-.23-.06-.34-.01-.04-.01-.08-.02-.12-.03-.15-.08-.3-.13-.45-.05-.15-.11-.3-.17-.45-.01-.03-.02-.06-.04-.09-.37-.85-.95-1.59-1.59-1.97l-5.03-2.9c-.12-.07-.23-.12-.34-.16a1.31 1.31 0 00-.27-.06c-.26-.03-.45 0-.64.08-.16.07-.29.19-.41.34-.09.12-.15.23-.2.34-.07.18-.11.31-.13.45-.03.22-.05.37-.05.55v3.96c-.69-.2-1.37-.35-2.03-.45-2.59-.38-4.9.03-6.8 1.15l-3.23-4c-.71-.88-1.57-1.29-2.2-1.14a.95.95 0 00-.58.39l-2.51 3.55c-.52.77-.19 2.39.78 3.6zm6.84 14.32c0-2.83.74-5.02 2.01-6.48.59-.68 1.29-1.19 2.08-1.54-.79.35 1.45-.81 1.45-.81 2.2-1.41 5.32-1.3 8.79.7.29.17.58.35.86.54l.19.13c.28.19.56.39.83.59.04.03.07.06.11.09.25.19.49.39.74.59l.17.14c.26.23.52.46.78.7.05.05.1.1.15.14a21.8 21.8 0 011.53 1.62c.05.06.11.12.16.18.23.27.45.54.67.82.28.35.5.65.72.95l.15.21c.22.31.43.62.64.93a31.737 31.737 0 01.73 1.18c.19.32.37.65.55.98.03.05.06.11.08.16.16.3.31.6.46.91l.09.18a45.116 45.116 0 01.55 1.22l.39.96c.01.04.03.07.04.11.13.35.25.69.36 1.04.02.08.05.15.07.23.11.35.22.71.31 1.06.11.4.2.81.29 1.21l.03.16c.08.38.14.77.2 1.15l.03.21c.05.38.09.75.12 1.13 0 .06.01.11.01.17.03.39.04.78.04 1.16 0 3.59-1.2 6.16-3.16 7.5-.12.08-.23.17-.35.24-.04.02-.07.04-.11.06l-1.82.98-.33.21a6.42 6.42 0 01-2.29.75c-1.83.23-3.98-.28-6.29-1.61-6.61-3.85-12.03-13.18-12.03-20.85z"/><path class="st6" d="M677.29 342.63c.75-1.37 1.19-3.14 1.19-5.28 0-.42-.02-.84-.05-1.27 0-.03 0-.07-.01-.1-.03-.42-.08-.84-.15-1.27 0-.03-.01-.07-.01-.1-.07-.43-.15-.87-.24-1.3-.11-.51-.22-.96-.35-1.41-.22-.77-.48-1.54-.77-2.31a28.811 28.811 0 00-2.18-4.46c-.02-.03-.03-.06-.05-.08-.41-.68-.85-1.35-1.32-2l-.07-.1c-.23-.31-.46-.62-.7-.93a.5.5 0 00-.07-.08c-.22-.28-.45-.55-.68-.82-.03-.04-.06-.08-.1-.11-.24-.28-.49-.55-.75-.82-.04-.05-.09-.09-.13-.13-.23-.24-.46-.47-.7-.7l-.1-.1c-.26-.24-.52-.48-.78-.7-.06-.05-.11-.1-.17-.15-.25-.21-.5-.41-.75-.6-.03-.02-.05-.04-.08-.06-.27-.21-.55-.4-.82-.59-.07-.04-.13-.09-.2-.13-.28-.19-.56-.36-.85-.53-1.74-1-3.38-1.53-4.88-1.63-1.15-.08-2.19.1-3.12.5-.79.35 1.45-.81 1.45-.81 2.2-1.41 5.32-1.3 8.79.7.29.17.58.35.86.54l.19.13c.28.19.56.39.83.59.04.03.07.06.11.09.25.19.49.39.74.59l.17.14c.26.23.52.46.78.7.05.05.1.1.15.14a21.8 21.8 0 011.53 1.62c.05.06.11.12.16.18.23.27.45.54.67.82.28.35.5.65.72.95l.15.21c.22.31.43.62.64.93a31.737 31.737 0 01.73 1.18c.19.32.37.65.55.98.03.05.06.11.08.16.16.3.31.6.46.91l.09.18a45.116 45.116 0 01.55 1.22l.39.96c.01.04.03.07.04.11.13.35.25.69.36 1.04.02.08.05.15.07.23.11.35.22.71.31 1.06.11.41.2.81.29 1.21l.03.16c.08.38.14.77.2 1.15l.03.21c.05.38.09.75.12 1.13 0 .06.01.11.01.17.03.39.04.78.04 1.16 0 3.59-1.2 6.16-3.16 7.5-.12.08-.23.17-.35.24-.04.02-.07.04-.11.06l-1.82.98c.85-.54 1.52-1.31 2.04-2.26z"/><linearGradient id="SVGID_4_" gradientUnits="userSpaceOnUse" x1="654.303" y1="330.378" x2="678.479" y2="330.378"><stop offset="0" stop-color="#ffd33f"/><stop offset="1" stop-color="#ff7364"/></linearGradient><path d="M656.31 316.92c-1.27 1.46-2.01 3.65-2.01 6.48 0 7.66 5.41 17 12.09 20.85 2.3 1.33 4.45 1.83 6.29 1.61.59-.07 1.15-.23 1.67-.45.21-.09.42-.19.62-.3.11-.06.22-.13.33-.21.81-.55 1.48-1.31 2-2.26.75-1.37 1.19-3.14 1.19-5.28 0-.42-.02-.84-.05-1.27 0-.03 0-.07-.01-.1-.03-.42-.08-.84-.15-1.27 0-.03-.01-.07-.01-.1-.07-.43-.15-.87-.24-1.3-.11-.51-.22-.96-.35-1.41a27.834 27.834 0 00-1.76-4.58c-.38-.78-.77-1.49-1.19-2.19-.02-.03-.03-.06-.05-.08-.41-.68-.85-1.35-1.32-2l-.07-.1c-.23-.31-.46-.62-.7-.93a.5.5 0 00-.07-.08c-.22-.28-.45-.55-.68-.82-.03-.04-.06-.08-.1-.11-.24-.28-.49-.55-.75-.82-.04-.05-.09-.09-.13-.13-.23-.24-.46-.47-.7-.7l-.1-.1c-.26-.24-.52-.48-.78-.7-.06-.05-.11-.1-.17-.15-.25-.21-.5-.41-.75-.6-.03-.02-.05-.04-.08-.06-.27-.21-.55-.4-.82-.59-.07-.04-.13-.09-.2-.13-.28-.19-.56-.36-.85-.53-1.74-1-3.38-1.53-4.88-1.63-1.15-.08-2.19.1-3.12.5-.81.34-1.51.86-2.1 1.54zm4.05 11.84c-.02-.1-.03-.19-.05-.28-.03-.18-.07-.36-.09-.53-.02-.11-.02-.22-.04-.34-.02-.15-.04-.3-.05-.44-.01-.12-.01-.24-.01-.36 0-.13-.01-.26-.01-.38s.01-.24.02-.37c.01-.11.01-.22.02-.33.01-.13.03-.25.05-.37.01-.09.03-.19.05-.28.02-.13.06-.24.09-.36.02-.08.04-.16.06-.23.04-.12.08-.24.13-.36.02-.06.05-.13.08-.19.05-.12.11-.23.17-.34.03-.05.05-.1.08-.15.07-.11.14-.22.22-.32.03-.04.06-.07.09-.11.08-.1.17-.2.27-.29l.08-.08c.1-.09.21-.18.32-.26.19-.13.32-.2.44-.26.2-.09.34-.14.49-.19.2-.05.36-.09.53-.11a4.1 4.1 0 011.05 0c3.43.43 7.31 4.6 8.66 9.32.1.34.17.67.24 1 .02.1.04.2.05.3.04.23.07.45.1.67l.03.3c.02.23.03.45.03.67 0 .07.01.15 0 .22 0 .29-.02.58-.05.86-.03.26-.08.51-.14.75a.75.75 0 01-.05.16c-.05.19-.11.37-.18.55l-.06.15c-.08.19-.18.37-.28.54-.16.25-.29.43-.45.59-.1.1-.2.19-.3.28-.06.05-.12.09-.18.13-.07.05-.14.1-.21.14-.06.04-.12.07-.19.1-.09.05-.19.09-.29.13-.05.02-.09.04-.14.06-.15.05-.3.09-.45.12-.05.01-.11.02-.16.02-.12.02-.25.03-.37.03-.05 0-.11.01-.16.01-.18 0-.36-.01-.56-.03-3.43-.43-7.31-4.6-8.66-9.32a7.04 7.04 0 01-.22-.82z" fill="url(#SVGID_4_)"/><path class="st6" d="M660.21 327.95c-.02-.11-.02-.22-.04-.34-.02-.15-.04-.3-.05-.44-.01-.12-.01-.24-.01-.36 0-.13-.01-.26-.01-.38s.01-.24.02-.37c.01-.11.01-.22.02-.33.01-.13.03-.25.05-.37.01-.09.03-.19.05-.28.02-.12.06-.24.09-.36.02-.08.04-.16.06-.23.04-.12.08-.24.13-.36.02-.06.05-.13.08-.19.05-.12.11-.23.17-.34.03-.05.05-.1.08-.15.07-.11.14-.22.22-.32.03-.04.06-.07.09-.11.08-.1.17-.2.27-.29l.08-.08c.1-.09.21-.18.32-.26.19-.13.32-.2.44-.26.2-.09.34-.14.49-.19.2-.05.36-.09.53-.11.2-.02.38-.03.57-.03-1.24 1.32-1.6 3.8-.75 6.77 1.35 4.72 5.23 8.89 8.66 9.32.16.02.32.02.48.03-.1.1-.2.19-.3.28-.06.05-.12.09-.18.13-.07.05-.14.1-.21.14-.06.04-.12.07-.19.1-.09.05-.19.09-.29.13-.05.02-.09.04-.14.06-.15.05-.3.09-.45.12-.05.01-.11.02-.16.02-.12.02-.25.03-.37.03-.05 0-.11.01-.16.01-.18 0-.36-.01-.56-.03-3.43-.43-7.31-4.6-8.66-9.32-.08-.29-.15-.57-.21-.85-.02-.1-.03-.19-.05-.28-.05-.16-.08-.34-.11-.51z"/><path class="st8" d="M671.77 337.91c-3.43-.43-7.31-4.6-8.66-9.32-.85-2.98-.49-5.46.75-6.77.16 0 .31.01.48.03 3.43.43 7.31 4.6 8.66 9.32.1.34.17.67.24 1 .02.1.04.2.05.3.04.23.07.45.1.67l.03.3c.02.23.03.45.03.67 0 .07.01.15 0 .22 0 .29-.02.58-.05.85-.03.28-.08.53-.14.77a.75.75 0 01-.05.16c-.05.19-.11.37-.18.55l-.06.15c-.08.19-.18.37-.28.54-.16.25-.29.43-.45.59-.15 0-.31-.01-.47-.03z"/><path class="st9" d="M297.18 308.23l-58.59-33.54a18.93 18.93 0 00-18.73-.02l-57.23 32.59v20.57l48.16 28.19h28.37l58.2-35.35c4.71-2.88 4.62-9.69-.18-12.44z"/><linearGradient id="SVGID_5_" gradientUnits="userSpaceOnUse" x1="650.691" y1="289.339" x2="776.876" y2="289.339" gradientTransform="translate(-515.53 .135)"><stop offset=".292" stop-color="#eaeaf9"/><stop offset=".388" stop-color="#e3e3f7"/><stop offset=".525" stop-color="#d0d0f2"/><stop offset=".627" stop-color="#bebeed"/></linearGradient><path d="M149.75 223.07v97.44c0 1.47.73 2.93 2.18 3.77l51.22 29.57c4.68 2.7 10.45 2.7 15.13 0l51.05-29.48c1.48-.85 2.16-2.38 2.08-3.87l.31-97.05-121.97-.38z" fill="url(#SVGID_5_)"/><path class="st5" d="M203.21 256.22l-51.22-29.57c-2.9-1.68-2.9-5.86 0-7.54l51.5-29.73a13.75 13.75 0 0113.76 0l52.14 30.1c2.8 1.61 3.2 5.36.4 6.97l-51.45 29.77c-4.68 2.7-10.45 2.7-15.13 0z"/><linearGradient id="SVGID_6_" gradientUnits="userSpaceOnUse" x1="191.489" y1="289.732" x2="131.524" y2="289.732" gradientTransform="translate(-.128 .126)"><stop offset=".465" stop-color="#fff"/><stop offset=".49" stop-color="#f8f8fd"/><stop offset=".526" stop-color="#e5e5f8"/><stop offset=".569" stop-color="#c7c7ef"/><stop offset=".579" stop-color="#bebeed"/></linearGradient><path d="M157.97 311.73v-73.29c0-.16.03-.3.06-.45-1.23-.43-2.59.46-2.59 1.84v73.29c0 1.15.61 2.21 1.6 2.78l44.6 25.73c.96.55 2.16-.14 2.16-1.25v-.37l-44.22-25.51c-1-.56-1.61-1.62-1.61-2.77z" fill="url(#SVGID_6_)"/><path class="st12" d="M201.64 263.1l-43.26-24.96c-.11-.07-.23-.1-.35-.14-.03.14-.06.29-.06.45v73.29c0 1.15.61 2.21 1.6 2.78l44.22 25.51v-73.2c0-1.54-.82-2.96-2.15-3.73z"/><linearGradient id="SVGID_7_" gradientUnits="userSpaceOnUse" x1="6083.516" y1="265.362" x2="6092.671" y2="265.362" gradientTransform="matrix(-1 0 0 1 6263.875 -.243)"><stop offset="0" stop-color="#ffd33f"/><stop offset="1" stop-color="#ff7364"/></linearGradient><path d="M171.28 271.58c3.39 1.96 6.15.38 6.15-3.51 0-3.89-2.76-8.65-6.15-10.61-.07-.04-.07-3.41-.07-3.41 5.08 2.93 9.16 9.97 9.16 15.72s-4.08 8.08-9.08 5.18c-.07-.04-.07-3.42-.07-3.42.01.02.03.03.06.05z" fill="url(#SVGID_7_)"/><path class="st14" d="M171.33 254.11v3.38c-3.34-1.88-6.04-.34-6.07 3.48l-2.94-1.66c.01-5.7 4.04-8.02 9.01-5.2zm10.78 39.79v2.47c-2.44-1.38-4.41-.25-4.44 2.54l-2.15-1.21c.02-4.17 2.96-5.87 6.59-3.8z"/><path class="st14" d="M181.87 313.82c5.98 3.46 10.85.68 10.85-6.19s-4.87-15.27-10.85-18.73c-.04-.02-.08-.04-.13-.07v-5.96c.04.02.08.05.13.07 8.84 5.11 16.03 17.53 16.03 27.68 0 10.15-7.19 14.26-16.03 9.15-.04-.02-.08-.05-.13-.08v-5.96c.05.03.09.06.13.09z"/><path class="st15" d="M171.23 295.09c0 .04-.01.07-.01.11 0 6.82 4.8 15.15 10.72 18.65v5.96c-8.78-5.15-15.91-17.5-15.91-27.61.01-.04 5.2 2.89 5.2 2.89z"/><path class="st9" d="M305.37 189.03L286 177.79a6.194 6.194 0 00-6.19-.01l-18.51 16.17 15.51 11.1h9.38l19.24-11.85c1.56-.96 1.53-3.24-.06-4.17z"/><linearGradient id="SVGID_8_" gradientUnits="userSpaceOnUse" x1="258.238" y1="171.88" x2="298.798" y2="171.88" gradientTransform="translate(-2.516)"><stop offset=".292" stop-color="#4a5ea5"/><stop offset=".363" stop-color="#46599e"/><stop offset=".465" stop-color="#3b4c8b"/><stop offset=".585" stop-color="#28366d"/><stop offset=".627" stop-color="#212d60"/></linearGradient><path d="M296.28 138.54h-40.56v54.91c0 .49.24.98.73 1.25l17.03 9.83c1.56.9 3.47.9 5.03 0l16.98-9.8c.49-.28.72-.79.69-1.29h.11v-54.9z" fill="url(#SVGID_8_)"/><path class="st17" d="M273.5 149.71l-17.03-9.83c-.96-.56-.96-1.95 0-2.51l17.12-9.89c1.42-.82 3.16-.82 4.57 0l17.34 10.01c.93.54.93 1.88 0 2.42l-16.98 9.8c-1.55.9-3.46.9-5.02 0z"/><path class="st12" d="M274.5 146.77l-12.28-7.09c-.7-.4-.7-1.41 0-1.81l12.34-7.13c1.02-.59 2.28-.59 3.3 0l12.5 7.22c.67.39.67 1.35 0 1.74l-12.24 7.07c-1.12.64-2.5.64-3.62 0z"/><linearGradient id="SVGID_9_" gradientUnits="userSpaceOnUse" x1="291.684" y1="134.759" x2="261.486" y2="134.759"><stop offset=".292" stop-color="#4a5ea5"/><stop offset=".363" stop-color="#46599e"/><stop offset=".465" stop-color="#3b4c8b"/><stop offset=".585" stop-color="#28366d"/><stop offset=".627" stop-color="#212d60"/></linearGradient><path d="M262.21 138.82l12.37-7.11c1.02-.59 2.28-.59 3.3 0l12.52 7.2c.16.09.28.22.36.36.27-.45.15-1.08-.36-1.38l-12.52-7.2a3.298 3.298 0 00-3.3 0l-12.37 7.11c-.52.3-.65.94-.39 1.41.09-.15.22-.29.39-.39z" fill="url(#SVGID_9_)"/><path class="st14" d="M285.21 153.23c0-.79.48-1.71 1.07-2.05.59-.34 1.07.02 1.07.81v20.18l-2.14 1.2v-20.14z"/><path class="st15" d="M287.35 172.17v17.88c0 .79-.48 1.71-1.07 2.05-.59.34-1.07-.02-1.07-.81v-17.92l2.14-1.2z"/><path d="M60.81 387.73c.98-.56.85-1.56-.27-2.21l-1.46-.84c-1.13-.65-2.85-.72-3.83-.16-.98.56-.85 1.56.28 2.21l1.46.84c1.12.65 2.84.72 3.82.16z" fill="#ffab83"/><path class="st9" d="M117.15 470.23l-40.87-23.72a13.026 13.026 0 00-13.06-.01l-52.35 30.22 46.02 27.31h19.79l40.6-25c3.28-2.04 3.22-6.85-.13-8.8z"/><linearGradient id="SVGID_10_" gradientUnits="userSpaceOnUse" x1="10.425" y1="476.486" x2="87.304" y2="476.486"><stop offset=".292" stop-color="#eaeaf9"/><stop offset=".388" stop-color="#e3e3f7"/><stop offset=".525" stop-color="#d0d0f2"/><stop offset=".627" stop-color="#bebeed"/></linearGradient><path d="M105.7 448.72v25.51c0 1.24-.62 2.49-1.85 3.2l-43.49 25.11a12.876 12.876 0 01-12.85 0L4.16 477.51a3.529 3.529 0 01-1.77-3.28h-.26v-25.51H105.7z" fill="url(#SVGID_10_)"/><path class="st5" d="M60.3 476.76l43.49-25.11c2.46-1.42 2.46-4.98 0-6.4L60.07 420a11.663 11.663 0 00-11.68 0L4.11 445.56c-2.37 1.37-2.37 4.8 0 6.17l43.35 25.03c3.97 2.29 8.87 2.29 12.84 0z"/><linearGradient id="SVGID_11_" gradientUnits="userSpaceOnUse" x1="7067.449" y1="393.452" x2="7143.455" y2="393.452" gradientTransform="matrix(-1 0 0 1 7206.012 0)"><stop offset="0" stop-color="#ff6f1b"/><stop offset="1" stop-color="#ff3933"/></linearGradient><path d="M114.85 415.56c-1.39 0-2.72-.28-3.71-.85l-46.98-27.12c-1.04-.6-1.61-1.45-1.61-2.39 0-1.1.8-2.2 2.19-3l16.75-9.67c2.5-1.44 6.31-1.59 8.49-.33l46.98 27.12c1.04.6 1.61 1.45 1.61 2.39 0 1.1-.8 2.2-2.19 3l-16.75 9.67c-1.37.78-3.11 1.18-4.78 1.18zm-3.29-1.58c1.95 1.12 5.38.97 7.64-.33l16.75-9.67c1.12-.65 1.76-1.47 1.76-2.27 0-.63-.42-1.22-1.18-1.66l-46.98-27.12c-1.95-1.12-5.38-.97-7.64.33l-16.75 9.67c-1.12.65-1.76 1.47-1.76 2.27 0 .63.42 1.22 1.18 1.66l46.98 27.12z" fill="url(#SVGID_11_)"/><path class="st22" d="M96.08 391.76a2.49 2.49 0 013.51-.02c.97.96.98 2.54.02 3.51l-2.77 2.79c-.96.97-2.54.98-3.51.02-.97-.96-.97-2.54-.02-3.51l2.77-2.79zm-12.05-3.14a2.49 2.49 0 013.51-.02c.97.96.98 2.54.02 3.51l-2.77 2.79c-.96.97-2.54.98-3.51.02a2.49 2.49 0 01-.02-3.51l2.77-2.79z"/><linearGradient id="SVGID_12_" gradientUnits="userSpaceOnUse" x1="7120.885" y1="395.588" x2="7155.612" y2="395.588" gradientTransform="matrix(-1 0 0 1 7206.012 0)"><stop offset=".546" stop-color="#ff7364"/><stop offset=".715" stop-color="#ff9457"/><stop offset="1" stop-color="#ffd33f"/></linearGradient><path d="M83.87 395.85c-3.11 1.75-6.23 3.5-9.34 5.26-2.67 1.5-6.19 4.3-9.45 4.16-3.91-.17-5.73-3.69-7.72-6.5-2.16-3.05-4.33-6.09-6.49-9.14-1.92-2.7 2.53-5.26 4.43-2.59 1.6 2.25 3.2 4.5 4.79 6.75 1.39 1.95 3.39 6.68 6.24 6.04 2.67-.59 5.84-3.29 8.22-4.63 2.24-1.26 4.48-2.52 6.73-3.79 2.88-1.61 5.47 2.82 2.59 4.44z" fill="url(#SVGID_12_)"/><linearGradient id="SVGID_13_" gradientUnits="userSpaceOnUse" x1="7122.604" y1="427.345" x2="7159.361" y2="427.345" gradientTransform="matrix(-1 0 0 1 7206.012 0)"><stop offset=".011" stop-color="#2234a4"/><stop offset=".135" stop-color="#263299"/><stop offset=".455" stop-color="#2f2d81"/><stop offset=".752" stop-color="#342a72"/><stop offset="1" stop-color="#36296d"/></linearGradient><path d="M70.3 417.89c-7.43 3.46-14.49 8.14-21.64 12.16-4.61 2.59-.47 9.68 4.14 7.09 6.24-3.51 12.49-7.02 18.73-10.53.41-.23.95-.63 1.5-.98.03-.35.36-.47 1.36-.63-.41.07-.89.33-1.36.63-.02.31.19.8.41 1.68.04.17.07.33.11.5l9.85 5.65c-1.31-10.51-4.87-19.39-13.1-15.57z" fill="url(#SVGID_13_)"/><path class="st25" d="M73.03 425.64c.47-.3.95-.56 1.36-.63-1 .16-1.33.28-1.36.63z"/><linearGradient id="SVGID_14_" gradientUnits="userSpaceOnUse" x1="51.206" y1="370.354" x2="66.949" y2="370.354"><stop offset=".292" stop-color="#4a5ea5"/><stop offset=".363" stop-color="#46599e"/><stop offset=".465" stop-color="#3b4c8b"/><stop offset=".585" stop-color="#28366d"/><stop offset=".627" stop-color="#212d60"/></linearGradient><path d="M52.19 365.15c.61-.29 1.34-.43 1.76-.96.35-.45.41-1.09.8-1.5.96-1.03 2.85.15 4.06-.57.32-.19.56-.5.9-.64 1.18-.47 2.24 1.37 3.49 1.13.34-.07.65-.29.99-.27.29.02.54.2.76.4.44.4.87 1.07 1.17 1.81.27.13.51.31.65.57.13.24.17.51.18.78.04.85-.24 1.85-.74 2.73-.06.38-.18.77-.34 1.14-.43.99-1.16 1.88-1.83 2.38-.33.25-.67.48-1 .72v1.4c0 .3-.24.54-.54.54-.12 0-.23-.05-.32-.11.02-.14.03-.29.03-.44 0-1.02-.45-1.84-1-1.84s-1 .82-1 1.84c0 .54.13 1.02.33 1.36-.34.75-.6 1.56-1.02 2.26-.59.99-1.77 1.78-2.74 1.25a2.28 2.28 0 01-.48-.38c-.21-.21-.43-.46-.64-.78a.956.956 0 01-.43-.31c-.19-.26-.25-.6-.42-.87-.41-.64-1.42-.82-1.61-1.56-.12-.45.14-.94.04-1.39-.16-.71-1.09-.98-1.39-1.65-.29-.63.09-1.35.22-2.03.23-1.18-.29-2.36-.8-3.45-.27-.6.31-1.27.92-1.56z" fill="url(#SVGID_14_)"/><path class="st22" d="M56.79 379.14c.97.53 2.15-.26 2.74-1.25.42-.7.68-1.51 1.02-2.26-.2-.34-.33-.82-.33-1.36 0-1.02.45-1.84 1-1.84s1 .82 1 1.84c0 .15-.01.3-.03.44.09.07.19.11.31.11.3 0 .54-.24.54-.54v-1.4c.34-.24.68-.48 1-.72.67-.51 1.4-1.4 1.83-2.38v4.5c0 3.02-2.31 5.5-5.26 5.78.04 1.89.08 3.78.11 5.68.04 1.76-4.23 1.75-4.27 0-.05-2.32-.09-4.64-.14-6.96.16.13.32.27.48.36z"/><path class="st12" d="M78.6 351.9l91.29 52.71c2.74 1.58 6.16-.4 6.16-3.56v-52.03c0-2.72-1.45-5.23-3.8-6.59L78.3 288.2c-.78-.45-1.76.11-1.76 1.02v59.13c0 1.46.78 2.82 2.06 3.55z"/><path class="st15" d="M90.75 310.71l-10.73-6.19v1.12l10.73 6.19zm0 4.02l-10.73-6.2v1.12l10.73 6.2zm-10.73-16.75v1.11l3.75 2.17v-1.12zm0 2.18v1.11l3.75 2.17v-1.12zm0 15.38v1.12l3.15 1.82v-1.12zm0 2.18v1.12l3.15 1.82v-1.12zm0 6.55v1.11l7.27 4.2v-1.11zm0 4.36v1.12l7.27 4.19v-1.11zm0 2.33v1.11l2.73 1.58v-1.12zm0 6.54v1.12l2.73 1.57v-1.11zm0 4.36v1.12l2.73 1.58v-1.12z"/><path class="st25" d="M84.53 431.22c.27-.14.53-.26.78-.31-.62.13-.83.09-.78.31z"/><linearGradient id="SVGID_15_" gradientUnits="userSpaceOnUse" x1="7110.096" y1="433.584" x2="7149.132" y2="433.584" gradientTransform="matrix(-1 0 0 1 7206.012 0)"><stop offset=".011" stop-color="#2234a4"/><stop offset=".135" stop-color="#263299"/><stop offset=".455" stop-color="#2f2d81"/><stop offset=".752" stop-color="#342a72"/><stop offset="1" stop-color="#36296d"/></linearGradient><path d="M58.7 436.97c4.99-2.92 9.94-6.12 14.98-9.07 2.51-1.47 5.04-2.89 7.63-4.16 8.14-3.97 11.22 4.75 13.07 10.86.61 2 1.1 4.02 1.53 6.04l-10.09-5.79c-.24-.73-.46-1.47-.72-2.2-.32-.87-.53-1.24-.57-1.43.27-.14.53-.26.78-.31-.62.13-.82.09-.78.31-.74.39-1.51 1.03-2.11 1.38-.09.05-.17.1-.26.15-6.42 3.76-12.13 7.31-18.56 11.07-4.57 2.68-9.46-4.19-4.9-6.85z" fill="url(#SVGID_15_)"/><linearGradient id="SVGID_16_" gradientUnits="userSpaceOnUse" x1="7135.721" y1="437.844" x2="7134.23" y2="397.309" gradientTransform="matrix(-1 0 0 1 7206.012 0)"><stop offset=".546" stop-color="#ff7364"/><stop offset=".715" stop-color="#ff9457"/><stop offset="1" stop-color="#ffd33f"/></linearGradient><path d="M47.17 399.87c.38-6.24 2.63-17.45 8.16-15.85 5.04 1.46 9.22 2.54 11.18 6.3.16.14.33.25.46.44 1.6 2.25 8.18 13.43 11.04 12.79 2.62-.58 2.35-1.32 14.95-8.41 2.88-1.62 5.47 2.81 2.59 4.43-14.83 8.35-15.76 9.55-18.79 9.41-3.19-.14-4.45-1.7-9.23-8.54-.27 4.85-.65 13.96-.33 33.92.03 1.61.67 7.04-.18 8.38-.94 1.5-1.61 2.64-3.3 2.58s-3.37-.58-4.88-1.4c-12.33-6.72-12.44-8.06-12.83-15.75-.48-9.41.59-18.88 1.16-28.3z" fill="url(#SVGID_16_)"/><path d="M97.17 314.61v1.16l4.3 2.52v-1.15zm0 2.26v1.16l4.28 2.52.01-1.16zm0 2.27v1.16l4.26 2.5.01-1.15zm0 2.27v1.16l10.63 6.25.01-1.16zm0 4.17v1.16l7.77 4.57.01-1.16zm0 2.27v1.16l7.76 4.56.01-1.16zm29.54 17.31l-6.46-3.79-.01 1.15 6.47 3.8zm-29.54-15.04v1.16l7.74 4.54.01-1.15zm25.2.45l-19.89-11.69.01-1.15 19.89 11.69zm-5-.67l-14.91-8.76.01-1.15 14.91 8.76zm9.34 4.31l-8.27-4.86v1.16l8.27 4.86zm0 2.29l-24.26-14.26-.01 1.16 24.27 14.26zm0 2.26l-16.24-9.54-.01 1.16 16.25 9.54zm0 4.18l-20.75-12.19-.01 1.15 20.76 12.2zm-7.47-.97l-13.3-7.81.01-1.16 13.29 7.82zm7.31 6.56l-20.63-12.11.01-1.16 20.63 12.12zm-17.33-7.43l-7.87-4.62.01-1.15 7.87 4.62zm17.49 9.11l-16.45-9.67v1.16l16.45 9.67zm0 2.28l-25.37-14.91-.01 1.16 25.38 14.91zm-6.89-.62l-18.5-10.88v-1.15l18.51 10.87zm6.89 2.88l-5.74-3.37-.01 1.16 5.75 3.37zm-29.54-15.08v1.16l7.71 4.53.01-1.16zm0 2.26v1.16l19.97 11.74.01-1.16zm29.54 17.33l-8.39-4.93-.01 1.15 8.4 4.94zM97.17 344.2v1.16l14.61 8.58.01-1.15zm0 2.27v1.16l17.53 10.3.01-1.16zm24.11 17.74l-19.62-11.53.01-1.15 19.62 11.52zm4.99 5.19l-24.63-14.46.01-1.16 24.62 14.47zm4.79-35.61v1.16l4.3 2.53.01-1.16zm0 2.27v1.16l4.28 2.51.01-1.15zm0 2.27v1.16l4.26 2.5.01-1.16zm0 2.26v1.16L141.7 348l.01-1.15zm0 4.18v1.16l7.78 4.56v-1.15zm0 2.26v1.16l7.76 4.56.01-1.15zm29.54 17.32l-6.46-3.8v1.16l6.46 3.8zm-29.54-15.05v1.16l7.74 4.55.01-1.16zm25.2.46l-19.89-11.69.01-1.16 19.89 11.69zm-5-.67l-14.91-8.76.01-1.16 14.91 8.76zm9.34 4.3l-8.26-4.85-.01 1.15 8.27 4.86zm0 2.29l-24.26-14.25-.01 1.15 24.27 14.26zm0 2.27l-16.24-9.54v1.15l16.24 9.55zm0 4.17l-20.74-12.19-.01 1.16 20.75 12.19zm-7.47-.96l-13.3-7.82.01-1.15 13.3 7.81zm7.31 6.56l-20.63-12.12.01-1.15 20.63 12.11zm-17.33-7.43l-7.87-4.63.01-1.15 7.87 4.62zm17.49 9.1l-16.44-9.66-.01 1.15 16.45 9.67zm0 2.28l-25.37-14.9-.01 1.15 25.38 14.91zm-6.88-.62l-18.51-10.87.01-1.16 18.51 10.88zm6.88 2.89l-5.74-3.37-.01 1.15 5.75 3.38zm-29.54-15.09v1.16l7.72 4.53v-1.15zm0 2.27v1.16l19.97 11.73.01-1.15zm29.54 17.33l-8.39-4.94-.01 1.16 8.4 4.94zm-29.54-15.07v1.16l14.61 8.59.01-1.16zm0 2.27v1.16l17.53 10.3.01-1.15zm24.11 17.74l-19.62-11.52.01-1.16 19.62 11.53zm4.99 5.2l-24.63-14.47.01-1.15 24.63 14.46z" fill="#626fa6"/><path d="M158.9 432.69l170.12-97.34c3.72-2.13 8.3-2.13 12.03 0l281.74 161.21c3.39 1.94 3.39 6.82 0 8.76L464.65 595.8h-35.99L158.9 441.46c-3.39-1.95-3.39-6.83 0-8.77z" fill="#0c25ba" opacity=".43"/><path class="st9" d="M810.29 598.04l-60.32-35.01a19.227 19.227 0 00-19.28-.02l-77.25 44.6 67.91 40.3h29.2l59.91-36.89c4.87-3.01 4.78-10.11-.17-12.98z"/><linearGradient id="SVGID_17_" gradientUnits="userSpaceOnUse" x1="649.709" y1="607.265" x2="764.041" y2="607.265"><stop offset=".292" stop-color="#4a5ea5"/><stop offset=".363" stop-color="#46599e"/><stop offset=".465" stop-color="#3b4c8b"/><stop offset=".585" stop-color="#28366d"/><stop offset=".627" stop-color="#212d60"/></linearGradient><path d="M793.39 566.28v37.64c-.01 1.84-.91 3.67-2.73 4.72l-64.18 37.06a18.945 18.945 0 01-18.96 0l-63.97-36.93c-1.85-1.07-2.71-2.98-2.61-4.85h-.4v-37.64h152.85z" fill="url(#SVGID_17_)"/><path class="st17" d="M726.4 607.66l64.18-37.06c3.64-2.1 3.64-7.35 0-9.45l-64.53-37.26a17.238 17.238 0 00-17.24 0l-65.34 37.72c-3.5 2.02-3.5 7.08 0 9.1l63.97 36.93c5.87 3.41 13.1 3.41 18.96.02z"/><path class="st15" d="M734.37 618.28c-1.24.71-2.25 2.65-2.25 4.29 0 1.65 1.01 2.41 2.25 1.7l41.39-23.9.05-6.02-41.44 23.93zm47.27-27.29l-5.82 3.36-.05 6.02 5.87-3.39c1.24-.71 2.25-2.65 2.25-4.29s-1.02-2.42-2.25-1.7z"/><linearGradient id="SVGID_18_" gradientUnits="userSpaceOnUse" x1="649.709" y1="558.234" x2="764.041" y2="558.234"><stop offset=".292" stop-color="#4a5ea5"/><stop offset=".363" stop-color="#46599e"/><stop offset=".465" stop-color="#3b4c8b"/><stop offset=".585" stop-color="#28366d"/><stop offset=".627" stop-color="#212d60"/></linearGradient><path d="M793.39 517.25v37.64c-.01 1.84-.91 3.67-2.73 4.72l-64.18 37.06a18.945 18.945 0 01-18.96 0l-63.97-36.93c-1.85-1.07-2.71-2.98-2.61-4.85h-.4v-37.64h152.85z" fill="url(#SVGID_18_)"/><path class="st17" d="M726.4 558.63l64.18-37.06c3.64-2.1 3.64-7.35 0-9.45l-64.53-37.26a17.238 17.238 0 00-17.24 0l-65.34 37.72c-3.5 2.02-3.5 7.08 0 9.1l63.97 36.93c5.87 3.41 13.1 3.41 18.96.02z"/><path class="st15" d="M734.37 569.24c-1.24.71-2.25 2.65-2.25 4.29 0 1.65 1.01 2.41 2.25 1.7l41.39-23.9.05-6.02-41.44 23.93zm47.27-27.28l-5.82 3.36-.05 6.02 5.87-3.39c1.24-.71 2.25-2.65 2.25-4.29 0-1.65-1.02-2.42-2.25-1.7z"/><linearGradient id="SVGID_19_" gradientUnits="userSpaceOnUse" x1="649.709" y1="509.091" x2="764.041" y2="509.091"><stop offset=".292" stop-color="#4a5ea5"/><stop offset=".363" stop-color="#46599e"/><stop offset=".465" stop-color="#3b4c8b"/><stop offset=".585" stop-color="#28366d"/><stop offset=".627" stop-color="#212d60"/></linearGradient><path d="M793.39 468.11v37.64c-.01 1.84-.91 3.67-2.73 4.72l-64.18 37.06a18.945 18.945 0 01-18.96 0l-63.97-36.93c-1.85-1.07-2.71-2.98-2.61-4.85h-.4v-37.64h152.85z" fill="url(#SVGID_19_)"/><path class="st17" d="M726.4 509.49l64.18-37.06c3.64-2.1 3.64-7.35 0-9.45l-64.53-37.26a17.238 17.238 0 00-17.24 0l-65.34 37.72c-3.5 2.02-3.5 7.08 0 9.1l63.97 36.93c5.87 3.4 13.1 3.4 18.96.02z"/><path class="st15" d="M734.37 520.1c-1.24.71-2.25 2.65-2.25 4.29 0 1.65 1.01 2.41 2.25 1.7l41.39-23.9.05-6.02-41.44 23.93zm47.27-27.29l-5.82 3.36-.05 6.02 5.87-3.39c1.24-.71 2.25-2.65 2.25-4.29s-1.02-2.41-2.25-1.7z"/><linearGradient id="SVGID_20_" gradientUnits="userSpaceOnUse" x1="649.709" y1="459.614" x2="764.041" y2="459.614"><stop offset=".292" stop-color="#4a5ea5"/><stop offset=".363" stop-color="#46599e"/><stop offset=".465" stop-color="#3b4c8b"/><stop offset=".585" stop-color="#28366d"/><stop offset=".627" stop-color="#212d60"/></linearGradient><path d="M793.39 418.63v37.64c-.01 1.84-.91 3.67-2.73 4.72l-64.18 37.06a18.945 18.945 0 01-18.96 0l-63.97-36.93c-1.85-1.07-2.71-2.98-2.61-4.85h-.4v-37.64h152.85z" fill="url(#SVGID_20_)"/><path class="st17" d="M726.4 460.01l64.18-37.06c3.64-2.1 3.64-7.35 0-9.45l-64.53-37.26a17.238 17.238 0 00-17.24 0l-65.34 37.72c-3.5 2.02-3.5 7.08 0 9.1l63.97 36.93c5.87 3.41 13.1 3.41 18.96.02z"/><path class="st15" d="M734.37 470.62c-1.24.71-2.25 2.65-2.25 4.29s1.01 2.41 2.25 1.7l41.39-23.9.05-6.02-41.44 23.93zm47.27-27.28l-5.82 3.36-.05 6.02 5.87-3.39c1.24-.71 2.25-2.65 2.25-4.29s-1.02-2.42-2.25-1.7z"/><path class="st12" d="M704.39 475.95c0 1.65 1.16 3.65 2.6 4.48 1.43.83 2.6.17 2.6-1.48s-1.16-3.65-2.6-4.48c-1.44-.83-2.6-.17-2.6 1.48zm-9.15-5.28c0 1.65 1.16 3.65 2.6 4.48 1.43.83 2.6.17 2.6-1.48s-1.16-3.65-2.6-4.48c-1.44-.83-2.6-.17-2.6 1.48zm-9.14-5.28c0 1.65 1.16 3.65 2.6 4.48 1.43.83 2.6.17 2.6-1.48s-1.16-3.65-2.6-4.48c-1.44-.83-2.6-.17-2.6 1.48zm-9.15-5.28c0 1.65 1.16 3.65 2.6 4.48 1.43.83 2.6.17 2.6-1.48s-1.16-3.65-2.6-4.48c-1.43-.83-2.6-.16-2.6 1.48z"/><path class="st36" d="M667.81 454.83c0 1.65 1.16 3.65 2.6 4.48 1.43.83 2.6.17 2.6-1.48s-1.16-3.65-2.6-4.48c-1.44-.83-2.6-.16-2.6 1.48zm-9.14-5.28c0 1.65 1.16 3.65 2.6 4.48 1.43.83 2.6.17 2.6-1.48s-1.16-3.65-2.6-4.48c-1.44-.83-2.6-.16-2.6 1.48zm-9.15-5.28c0 1.65 1.16 3.65 2.6 4.48 1.43.83 2.6.17 2.6-1.48s-1.16-3.65-2.6-4.48c-1.44-.83-2.6-.16-2.6 1.48zm56.2 82.94c0 1.65 1.16 3.65 2.6 4.48 1.43.83 2.6.17 2.6-1.48s-1.16-3.65-2.6-4.48c-1.43-.83-2.6-.17-2.6 1.48z"/><linearGradient id="SVGID_21_" gradientUnits="userSpaceOnUse" x1="696.579" y1="523.43" x2="701.774" y2="523.43"><stop offset="0" stop-color="#ffd33f"/><stop offset="1" stop-color="#ff7364"/></linearGradient><path d="M696.58 521.93c0 1.65 1.16 3.65 2.6 4.48 1.43.83 2.6.17 2.6-1.48s-1.16-3.65-2.6-4.48-2.6-.17-2.6 1.48z" fill="url(#SVGID_21_)"/><linearGradient id="SVGID_22_" gradientUnits="userSpaceOnUse" x1="687.435" y1="518.151" x2="692.63" y2="518.151"><stop offset="0" stop-color="#ffd33f"/><stop offset="1" stop-color="#ff7364"/></linearGradient><path d="M687.43 516.65c0 1.65 1.16 3.65 2.6 4.48 1.43.83 2.6.17 2.6-1.48s-1.16-3.65-2.6-4.48c-1.43-.83-2.6-.17-2.6 1.48z" fill="url(#SVGID_22_)"/><linearGradient id="SVGID_23_" gradientUnits="userSpaceOnUse" x1="678.291" y1="512.871" x2="683.486" y2="512.871"><stop offset="0" stop-color="#ffd33f"/><stop offset="1" stop-color="#ff7364"/></linearGradient><path d="M678.29 511.37c0 1.65 1.16 3.65 2.6 4.48 1.43.83 2.6.17 2.6-1.48s-1.16-3.65-2.6-4.48c-1.44-.83-2.6-.16-2.6 1.48z" fill="url(#SVGID_23_)"/><linearGradient id="SVGID_24_" gradientUnits="userSpaceOnUse" x1="669.146" y1="507.592" x2="674.342" y2="507.592"><stop offset="0" stop-color="#ffd33f"/><stop offset="1" stop-color="#ff7364"/></linearGradient><path d="M669.15 506.09c0 1.65 1.16 3.65 2.6 4.48 1.43.83 2.6.17 2.6-1.48s-1.16-3.65-2.6-4.48c-1.44-.83-2.6-.16-2.6 1.48z" fill="url(#SVGID_24_)"/><linearGradient id="SVGID_25_" gradientUnits="userSpaceOnUse" x1="660.002" y1="502.312" x2="665.198" y2="502.312"><stop offset="0" stop-color="#ffd33f"/><stop offset="1" stop-color="#ff7364"/></linearGradient><path d="M660 500.81c0 1.65 1.16 3.65 2.6 4.48 1.43.83 2.6.17 2.6-1.48s-1.16-3.65-2.6-4.48c-1.43-.83-2.6-.16-2.6 1.48z" fill="url(#SVGID_25_)"/><path class="st36" d="M650.86 495.53c0 1.65 1.16 3.65 2.6 4.48 1.43.83 2.6.17 2.6-1.48s-1.16-3.65-2.6-4.48c-1.44-.83-2.6-.16-2.6 1.48zm52.86 81.07c0 1.65 1.16 3.65 2.6 4.48 1.43.83 2.6.17 2.6-1.48s-1.16-3.65-2.6-4.48c-1.44-.83-2.6-.16-2.6 1.48z"/><path class="st12" d="M694.57 571.32c0 1.65 1.16 3.65 2.6 4.48 1.43.83 2.6.17 2.6-1.48s-1.16-3.65-2.6-4.48c-1.43-.83-2.6-.16-2.6 1.48zm-9.14-5.28c0 1.65 1.16 3.65 2.6 4.48 1.43.83 2.6.17 2.6-1.48s-1.16-3.65-2.6-4.48c-1.44-.83-2.6-.16-2.6 1.48z"/><path class="st36" d="M676.28 560.76c0 1.65 1.16 3.65 2.6 4.48 1.43.83 2.6.17 2.6-1.48s-1.16-3.65-2.6-4.48c-1.43-.82-2.6-.16-2.6 1.48zm-9.14-5.27c0 1.65 1.16 3.65 2.6 4.48 1.43.83 2.6.17 2.6-1.48s-1.16-3.65-2.6-4.48c-1.44-.83-2.6-.17-2.6 1.48zm-9.14-5.28c0 1.65 1.16 3.65 2.6 4.48 1.43.83 2.6.17 2.6-1.48s-1.16-3.65-2.6-4.48c-1.44-.83-2.6-.17-2.6 1.48zm-9.15-5.28c0 1.65 1.16 3.65 2.6 4.48 1.43.83 2.6.17 2.6-1.48s-1.16-3.65-2.6-4.48c-1.43-.83-2.6-.17-2.6 1.48z"/><path class="st12" d="M703.05 622.74c0 1.65 1.16 3.65 2.6 4.48 1.43.83 2.6.17 2.6-1.48s-1.16-3.65-2.6-4.48c-1.44-.83-2.6-.17-2.6 1.48zm-9.15-5.28c0 1.65 1.16 3.65 2.6 4.48 1.43.83 2.6.17 2.6-1.48s-1.16-3.65-2.6-4.48c-1.43-.83-2.6-.17-2.6 1.48z"/><linearGradient id="SVGID_26_" gradientUnits="userSpaceOnUse" x1="684.76" y1="613.678" x2="689.956" y2="613.678"><stop offset="0" stop-color="#ffd33f"/><stop offset="1" stop-color="#ff7364"/></linearGradient><path d="M684.76 612.18c0 1.65 1.16 3.65 2.6 4.48 1.43.83 2.6.17 2.6-1.48s-1.16-3.65-2.6-4.48c-1.44-.83-2.6-.17-2.6 1.48z" fill="url(#SVGID_26_)"/><linearGradient id="SVGID_27_" gradientUnits="userSpaceOnUse" x1="675.616" y1="608.399" x2="680.812" y2="608.399"><stop offset="0" stop-color="#ffd33f"/><stop offset="1" stop-color="#ff7364"/></linearGradient><path d="M675.62 606.9c0 1.65 1.16 3.65 2.6 4.48 1.43.83 2.6.17 2.6-1.48s-1.16-3.65-2.6-4.48c-1.44-.83-2.6-.17-2.6 1.48z" fill="url(#SVGID_27_)"/><linearGradient id="SVGID_28_" gradientUnits="userSpaceOnUse" x1="666.472" y1="603.119" x2="671.668" y2="603.119"><stop offset="0" stop-color="#ffd33f"/><stop offset="1" stop-color="#ff7364"/></linearGradient><path d="M666.47 601.62c0 1.65 1.16 3.65 2.6 4.48 1.43.83 2.6.17 2.6-1.48s-1.16-3.65-2.6-4.48-2.6-.17-2.6 1.48z" fill="url(#SVGID_28_)"/><path class="st12" d="M657.33 596.34c0 1.65 1.16 3.65 2.6 4.48 1.43.83 2.6.17 2.6-1.48s-1.16-3.65-2.6-4.48c-1.44-.83-2.6-.17-2.6 1.48zm-9.15-5.28c0 1.65 1.16 3.65 2.6 4.48 1.43.83 2.6.17 2.6-1.48s-1.16-3.65-2.6-4.48c-1.43-.83-2.6-.17-2.6 1.48z"/><linearGradient id="SVGID_29_" gradientUnits="userSpaceOnUse" x1="-10623.1" y1="511.942" x2="-10188.647" y2="511.942" gradientTransform="translate(10777.826)"><stop offset=".465" stop-color="#eaeaf9"/><stop offset=".508" stop-color="#e3e3f7"/><stop offset=".57" stop-color="#d0d0f2"/><stop offset=".616" stop-color="#bebeed"/></linearGradient><path d="M436.17 578.06a24.988 24.988 0 01-25.03-.13L154.8 427.65l-.07.26v13.85c0 3.49 1.87 6.71 4.9 8.44L407.3 591.9a32.869 32.869 0 0032.63 0l141-80.59c4.97-2.84 8.06-8.1 8.13-13.82l.12-9.95-153.01 90.52z" fill="url(#SVGID_29_)"/><path class="st46" d="M435.69 578.33l151.05-86.42c3.14-1.8 3.14-6.32 0-8.11L325.8 334.51a11.238 11.238 0 00-11.14 0L157.1 424.65c-3.14 1.8-3.14 6.32 0 8.11l254.43 145.57a24.335 24.335 0 0024.16 0z"/><path d="M524.03 469.26c2.32 1.33 6.09 1.33 8.42-.02 2.33-1.34 2.34-3.51.03-4.85-2.32-1.33-6.09-1.33-8.42.02-2.33 1.34-2.34 3.51-.03 4.85zm11.74 6.75c2.32 1.33 6.09 1.33 8.42-.02 2.33-1.34 2.34-3.51.03-4.85-2.32-1.33-6.09-1.33-8.42.01-2.33 1.36-2.35 3.53-.03 4.86zm11.74 6.76c2.32 1.33 6.09 1.33 8.42-.02 2.33-1.34 2.34-3.51.03-4.85-2.32-1.33-6.09-1.33-8.42.02-2.33 1.34-2.35 3.51-.03 4.85z" fill="#7777d8"/><path class="st1" d="M270.44 480.53l49.14 28.28c5.5 3.17 15.11 2.77 21.46-.89l18.01-10.37c6.35-3.66 7.04-9.19 1.54-12.35l-49.14-28.28c-5.5-3.17-15.11-2.77-21.46.89l-18.01 10.37c-6.35 3.65-7.04 9.18-1.54 12.35zm42.02-107.74l-16.93-9.75 16.85-9.68 16.93 9.75zm20.16 11.58l-16.94-9.74 16.83-9.67 16.95 9.75zm20.14 11.62l-16.93-9.78 16.85-9.67 16.94 9.78zm20.18 11.6l-16.95-9.73 16.83-9.73 16.94 9.76zm20.13 11.59l-16.94-9.74 16.82-9.69 16.96 9.71zm20.15 11.59l-16.96-9.75 16.83-9.68 16.97 9.75zm20.13 11.6l-16.93-9.74 16.84-9.72 16.92 9.78zm20.15 11.59l-16.93-9.74 16.82-9.69 16.97 9.76zm20.15 11.61l-16.93-9.78 16.82-9.68 16.96 9.78zm20.15 11.59l-16.94-9.74 16.83-9.7 16.93 9.75zm20.15 11.61l-16.96-9.75 16.86-9.73 16.93 9.76zm20.16 11.59l-16.96-9.77 16.83-9.69 16.95 9.73zM291.02 385.15l-16.95-9.77 16.84-9.66 16.96 9.71zm20.15 11.6L294.2 387l16.86-9.7 16.93 9.77zm20.15 11.58l-16.94-9.73 16.81-9.68 16.95 9.73zm20.15 11.6l-16.96-9.75 16.83-9.69 16.96 9.75zm20.13 11.6l-16.93-9.77 16.82-9.69 16.95 9.78zm20.14 11.6l-16.93-9.74 16.83-9.71 16.95 9.77zm20.16 11.6l-16.94-9.75 16.83-9.68 16.94 9.72zm20.13 11.58l-16.94-9.73 16.85-9.71 16.91 9.77zm20.15 11.59l-16.94-9.73 16.86-9.7 16.93 9.75zm20.17 11.61l-16.96-9.76 16.84-9.68 16.93 9.75zm20.13 11.6l-16.94-9.77 16.84-9.69 16.93 9.76zm20.14 11.6l-16.94-9.76 16.84-9.7 16.95 9.76zM268.79 397.94l-16.94-9.73 16.84-9.7 16.93 9.74zm20.14 11.61l-16.92-9.77 16.82-9.69 16.94 9.76zm20.16 11.59l-16.96-9.75 16.85-9.69 16.94 9.77zm20.13 11.61l-16.93-9.76 16.83-9.69 16.95 9.73zm20.15 11.56l-16.93-9.73 16.81-9.68 16.97 9.73zm20.13 11.62l-16.93-9.74 16.85-9.71 16.95 9.76zm20.18 11.6l-16.93-9.77 16.82-9.68 16.94 9.77zm20.13 11.58l-16.94-9.73 16.83-9.7 16.96 9.76zm20.15 11.61l-16.93-9.76 16.84-9.72 16.93 9.79zm20.15 11.58l-16.93-9.74 16.82-9.7 16.96 9.73zm20.15 11.61l-16.96-9.76 16.85-9.68 16.94 9.73zm20.15 11.58l-16.95-9.74 16.85-9.69 16.92 9.74z"/><path class="st36" d="M280.48 515.27l-8.73-5.03c-1.22-.7-2.22-2.61-2.22-4.24 0-1.63 1-2.38 2.22-1.68l8.73 5.03c1.22.7 2.22 2.61 2.22 4.24 0 1.63-1 2.38-2.22 1.68z"/><path d="M324.27 134.52l.3-.18c-.09.06-.18.12-.28.18h-.02z" fill="#757575"/><linearGradient id="SVGID_30_" gradientUnits="userSpaceOnUse" x1="733.87" y1="454.86" x2="375.932" y2="248.205"><stop offset=".373" stop-color="#bebeed"/><stop offset=".54" stop-color="#eaeaf9"/></linearGradient><path d="M611.38 290.17c-1.36-8.38-6.38-15.81-13.88-20.12L347.71 126.66c-3.39-1.94-7.18-1.71-10.16-.04.04-.06-12.67 7.53-12.67 7.53 2.97-1.67 6.75-1.89 10.13.05l249.55 143.25c7.34 4.22 12.29 11.44 13.77 19.61.3 1.65.51 3.33.51 5.04v165.25c0 5.19-2.75 9.42-6.64 11.8l12.2-6.81c4.28-2.25 7.4-6.68 7.4-12.2V294.72c-.01-1.54-.18-3.06-.42-4.55z" fill="url(#SVGID_30_)"/><path class="st46" d="M324.29 134.53c.09-.06.18-.13.28-.18.11-.06.21-.13.32-.19 2.97-1.67 6.75-1.89 10.13.05l249.55 143.25a28.42 28.42 0 0114.27 24.65v165.25c0 5.19-2.75 9.42-6.64 11.77-4.03 2.45-9.28 2.88-13.97.22L333.72 340.41a27.842 27.842 0 01-14.09-24.21V143.1c0-3.73 1.92-6.79 4.66-8.57z"/><path class="st12" d="M581.37 284.12L332.16 140.97c-2.92-1.68-6.55.43-6.54 3.8l.38 170.89c.02 8.19 4.43 15.74 11.55 19.78l238.58 135.33c6.62 3.76 14.84-1.03 14.84-8.64V300.69c0-6.84-3.66-13.17-9.6-16.57z"/><path class="st36" d="M345.09 302.78c0-3.51 2.46-4.94 5.51-3.23l-.02-9.33c-7.71-4.39-13.95-.83-13.99 8l8.51 4.91c0-.11-.01-.23-.01-.35z"/><path class="st50" d="M345.11 303.15l-8.51-4.91c0 4.55 1.58 9.51 4.13 13.91l6.13-3.67c-1.02-1.69-1.67-3.59-1.75-5.33z"/><linearGradient id="SVGID_31_" gradientUnits="userSpaceOnUse" x1="340.725" y1="307.384" x2="364.763" y2="307.384"><stop offset="0" stop-color="#ffd33f"/><stop offset="1" stop-color="#ff7364"/></linearGradient><path d="M364.76 314.49c-.04-8.91-6.33-19.73-14.08-24.21-.03-.02-.06-.03-.1-.05l.02 9.33c3.16 1.82 5.66 6.14 5.66 9.68s-2.5 4.97-5.59 3.19c-1.48-.86-2.82-2.3-3.82-3.95l-6.13 3.67c2.54 4.38 6.05 8.21 9.92 10.45 7.81 4.51 14.12.91 14.12-8.01v-.1z" fill="url(#SVGID_31_)"/><path class="st50" d="M399.66 213.29v2.24c-2.21-1.25-4-.22-4.02 2.31l-1.95-1.1c.01-3.79 2.68-5.32 5.97-3.45z"/><path class="st50" d="M399.43 231.34c5.42 3.13 9.83.62 9.83-5.61s-4.41-13.85-9.83-16.98c-.04-.02-.08-.04-.11-.06v-5.4c.04.02.08.04.11.06 8.01 4.63 14.53 15.89 14.53 25.09s-6.52 12.93-14.53 8.29c-.04-.02-.08-.05-.11-.07v-5.4c.04.03.08.06.11.08z"/><path class="st6" d="M389.79 214.37v.1c0 6.18 4.35 13.73 9.72 16.91v5.4c-7.96-4.67-14.42-15.86-14.42-25.02 0-.05 4.7 2.61 4.7 2.61z"/><path class="st52" d="M345.47 233.39l-.07 5.68-4.98-2.95.07-5.68z"/><path class="st53" d="M345.6 221.92l-.06 5.68-4.98-2.95.07-5.68zm.14-11.46l-.07 5.67-4.98-2.95.07-5.67z"/><path class="st52" d="M345.87 198.99l-.06 5.68-4.98-2.95.06-5.68z"/><path class="st54" d="M346.01 187.53l-.07 5.67-4.98-2.95.07-5.68zm.13-11.47l-.06 5.67-4.98-2.95.06-5.67zm6.97 61.86l-.07 5.67-4.98-2.95.07-5.67z"/><path class="st52" d="M353.24 226.45l-.06 5.68-4.98-2.95.06-5.68z"/><path class="st6" d="M353.38 214.99l-.07 5.67-4.98-2.95.07-5.68z"/><path class="st53" d="M353.51 203.52l-.06 5.67-4.98-2.95.06-5.67z"/><path class="st54" d="M353.65 192.05l-.07 5.68-4.98-2.95.07-5.68z"/><path class="st55" d="M353.78 180.59l-.06 5.67-4.98-2.95.06-5.68z"/><path class="st53" d="M360.88 242.53l-.06 5.67-4.98-2.95.07-5.67zm.14-11.47l-.07 5.68-4.98-2.95.07-5.68z"/><path class="st54" d="M361.15 219.59l-.06 5.68-4.98-2.95.06-5.68z"/><path class="st52" d="M361.29 208.13l-.07 5.67-4.98-2.95.07-5.67z"/><path class="st53" d="M361.42 196.66l-.06 5.68-4.98-2.95.06-5.68z"/><path class="st55" d="M361.56 185.19l-.07 5.68-4.98-2.95.07-5.68z"/><path class="st6" d="M368.11 246.81l-.06 5.68-4.98-2.95.07-5.68z"/><path class="st52" d="M368.25 235.35l-.07 5.67-4.98-2.95.07-5.67z"/><path class="st53" d="M368.38 223.88l-.06 5.67-4.98-2.95.06-5.67zm.14-11.47l-.07 5.68-4.98-2.95.07-5.68zm.13-11.46l-.06 5.67-4.98-2.95.06-5.67z"/><path class="st6" d="M368.79 189.48l-.07 5.67-4.98-2.95.07-5.67z"/><path class="st52" d="M414.3 271.46l-23.73-13.7v2.47l23.73 13.7z"/><path class="st15" d="M414.3 280.34l-23.73-13.7v2.47l23.73 13.7z"/><path class="st52" d="M390.57 243.28v2.47l8.3 4.79v-2.46zm0 4.83v2.47l8.3 4.79v-2.47zm0 34.03v2.47l6.96 4.02v-2.47zm0 4.82v2.47l6.96 4.02v-2.47zm0 14.48v2.46l16.08 9.29v-2.47zm0 9.65v2.46l16.08 9.29v-2.47z"/><path class="st15" d="M390.57 316.23v2.47l6.04 3.49v-2.47z"/><path class="st52" d="M390.57 330.7v2.47l6.04 3.49v-2.47z"/><path class="st15" d="M390.57 340.35v2.47l6.04 3.49v-2.47z"/><path class="st50" d="M430.39 223.11v2.57l9.51 5.59.02-2.56zm0 5.02v2.57l9.47 5.56.02-2.55zm0 5.02v2.56l9.43 5.55.02-2.56zm0 5.01v2.57l23.54 13.83.02-2.55zm0 9.24v2.57l17.21 10.11.02-2.55zm0 5.02v2.57l17.17 10.09.02-2.56zm65.39 38.33l-14.3-8.4-.02 2.55 14.32 8.41zm-65.39-33.31v2.57l17.13 10.06.02-2.55zm55.78 1.01l-44.03-25.87.02-2.56 44.03 25.87zm-11.07-1.48l-33-19.39.02-2.56 33 19.39zm20.68 9.53l-18.3-10.75-.02 2.55 18.32 10.77zm0 5.06l-53.7-31.54-.02 2.55 53.72 31.56zm0 5.02l-35.95-21.11-.01 2.55 35.96 21.13zm0 9.24l-45.93-26.98-.02 2.56 45.95 26.99zm-16.55-2.14l-29.43-17.29.02-2.55 29.43 17.29zm16.19 14.53l-45.66-26.82.02-2.56 45.66 26.82zm-38.36-16.45l-17.42-10.23.02-2.56 17.42 10.24zm38.72 20.15l-36.41-21.39-.02 2.56 36.43 21.4zm0 5.05l-56.16-32.99-.02 2.55 56.18 33.01zm-15.24-1.37l-40.98-24.07.02-2.56 40.97 24.07zm15.24 6.39l-12.71-7.47-.02 2.56 12.73 7.47zm-65.39-33.4v2.57l17.07 10.03.02-2.56zm0 5.02v2.56l44.21 25.98.02-2.56zm65.39 38.35l-18.58-10.91-.02 2.55 18.6 10.93zm-65.39-33.33v2.56l32.34 19.01.02-2.56zm0 5.01v2.57l38.8 22.8.02-2.56zm53.36 39.27l-43.42-25.51.02-2.55 43.42 25.5zm11.04 11.51l-54.5-32.02.02-2.56 54.5 32.02zm-64.9-34.36v2.57l9.52 5.59.02-2.56zm0 5.02v2.57l9.48 5.56.02-2.55zm0 5.02v2.57l9.44 5.54.02-2.56zm0 5.02v2.56l23.55 13.83.02-2.55zm0 9.23v2.57l17.22 10.11.02-2.55zm0 5.02v2.57l17.18 10.09.02-2.56zm65.4 38.33l-14.3-8.4-.02 2.55 14.32 8.42zm-65.4-33.31v2.57l17.14 10.06.02-2.55zm55.79 1.01l-44.03-25.87.01-2.55 44.04 25.86zm-11.07-1.48l-33-19.39.02-2.56 33 19.39zm20.68 9.53l-18.3-10.75-.02 2.56 18.32 10.76zm0 5.06l-53.7-31.54-.02 2.55 53.72 31.56zm0 5.02l-35.95-21.11-.02 2.55 35.97 21.13zm0 9.24l-45.93-26.98-.02 2.56 45.95 26.99zm-16.55-2.13l-29.43-17.3.01-2.55 29.44 17.29zm16.19 14.52l-45.66-26.82.02-2.56 45.65 26.83zm-38.36-16.45l-17.42-10.23.02-2.56 17.42 10.24zm38.72 20.15l-36.41-21.39-.02 2.56 36.43 21.4zm0 5.05l-56.16-32.99-.02 2.56 56.18 33zm-15.25-1.37l-40.97-24.07.02-2.55 40.97 24.06zm15.25 6.39l-12.71-7.47-.02 2.56 12.73 7.48zm-65.4-33.4v2.57l17.08 10.03.02-2.56zm0 5.02v2.57l44.22 25.97.02-2.56zm77.86-103.73v2.57l9.47 5.56.02-2.55zm0 5.02v2.57l9.44 5.54.01-2.56zm0 5.02v2.56l23.54 13.83.02-2.55zm0 9.23v2.57l17.21 10.11.02-2.55zm0 5.02v2.57l17.17 10.09.02-2.56zm65.39 38.33l-14.29-8.4-.02 2.55 14.31 8.42zm-65.39-33.31v2.57l17.13 10.06.02-2.55zm44.72-.47l-33.01-19.39.02-2.56 33.01 19.39zm20.67 9.53l-18.3-10.75-.02 2.56 18.32 10.76zm0 5.06l-53.7-31.54-.02 2.55 53.72 31.56zm0 5.02l-35.94-21.11-.02 2.55 35.96 21.13zm0 9.24l-45.92-26.98-.02 2.56 45.94 26.99zm-16.54-2.13l-29.44-17.3.02-2.55 29.43 17.29zm16.18 14.52l-45.66-26.82.02-2.56 45.66 26.83zm-38.35-16.45L517 310.21l.02-2.56 17.43 10.24zm38.71 20.15l-36.4-21.39-.02 2.56 36.42 21.4zm0 5.05l-56.15-32.99-.02 2.56 56.17 33zm-15.24-1.37l-40.97-24.07.02-2.55 40.97 24.06zm15.24 6.39l-12.7-7.47-.02 2.56 12.72 7.48zm-65.39-33.4v2.57l17.08 10.03.02-2.56zm0 5.02v2.57l44.21 25.97.02-2.56zm65.39 38.35l-18.58-10.91-.01 2.56 18.59 10.92zm-65.39-33.33v2.57l32.34 19 .02-2.56zm0 5.02v2.56l38.81 22.8.02-2.56zm53.36 39.26l-43.42-25.51.02-2.55 43.42 25.51zm11.05 11.51l-54.51-32.02.02-2.56 54.51 32.02zm-64.9-34.36v2.57l9.51 5.59.02-2.56zm0 5.02v2.57l9.47 5.56.02-2.55zm0 5.02v2.57l9.43 5.54.02-2.56zm0 5.02v2.57l23.54 13.83.02-2.56zm0 12.67v2.57l17.21 10.11.02-2.55zm0 5.02v2.57l17.17 10.09.02-2.56zm0 5.02v2.57l17.13 10.06.02-2.55zm55.78-2.43l-44.03-25.87.02-2.55 44.03 25.86zm-11.07-1.48l-33-19.39.02-2.56 33 19.39zm20.68 9.53l-18.3-10.75-.02 2.56 18.32 10.76zm0 5.07l-53.7-31.55-.02 2.56 53.72 31.55zm0 5.01l-35.94-21.11-.02 2.55 35.96 21.13zm0 12.68l-45.92-26.98-.02 2.56 45.94 26.99zm-16.55-2.13l-29.43-17.3.02-2.55 29.43 17.29zm16.19 14.52l-45.66-26.82.02-2.56 45.66 26.83zm-38.35-16.45l-17.43-10.23.02-2.56 17.43 10.24zm38.71 25.2l-56.15-32.99-.02 2.56 56.17 33zm-15.24-1.37l-40.97-24.07.02-2.55 40.97 24.06zm-50.15-27.01v2.57l17.08 10.03.02-2.56zm0 5.02v2.57l44.21 25.97.02-2.56z"/><linearGradient id="SVGID_32_" gradientUnits="userSpaceOnUse" x1="293.769" y1="35.06" x2="475.253" y2="35.06"><stop offset=".459" stop-color="#eaeaf9"/><stop offset=".497" stop-color="#e8e8f8"/><stop offset=".514" stop-color="#e1e1f6"/><stop offset=".526" stop-color="#d4d4f3"/><stop offset=".536" stop-color="#c3c3ee"/><stop offset=".538" stop-color="#bebeed"/></linearGradient><path d="M390.14 53.19l-29.65-17.12c-.05-.03-.11-.07-.16-.1l-56.3-32.51c-1.27-.73-2.35-.6-3.13-.09 0 0-3.17 1.84-3.15 1.86.08-.05.13-.08.16-.08.72-.37 1.69-.3 2.77.32l28.13 16.24 28.17 16.26c.05.03.11.07.16.1l7.17 4.14 22.48 12.98c2.22 1.28 4.02 4.39 4.02 6.94v5.04l3.35-1.92v-5.11c0-2.56-1.8-5.67-4.02-6.95z" fill="url(#SVGID_32_)"/><path d="M390.74 67.2c.07.04.07 54.39.07 54.39 0 1.04-.3 1.82-.81 2.3 1.55-.89 3.12-1.79 3.11-1.8.65-.44 1.05-1.3 1.05-2.5V65.24l-3.42 1.96z" fill="#1d2856"/><path class="st8" d="M390.81 67.24l-64.35-37.29c0 .06-29.81-17.22-29.81-17.22v54.49c0 2.55 1.8 5.65 4.02 6.94l29.65 17.12c.05.03.11.07.16.1l56.3 32.51c1.04.6 1.98.69 2.7.36.03-.01.06-.03.09-.04.03-.02.07-.04.1-.06.12-.07.22-.16.32-.25.51-.48.81-1.26.81-2.3V67.24z"/><path class="st5" d="M386.79 55.19L364.3 42.21l-7.17-4.14c-.05-.03-.11-.07-.16-.1L328.8 21.71 300.68 5.47c-1.08-.62-2.05-.69-2.77-.32-.05.03-.11.05-.16.08-.68.43-1.1 1.3-1.1 2.53v4.97l29.81 17.28c0-.06 64.35 37.23 64.35 37.23v-5.11c0-2.55-1.8-5.65-4.02-6.94z"/><path d="M387.28 62.34c.11-.2.17-.46.17-.77 0-1.12-.79-2.48-1.76-3.04-.25-.15-.49-.22-.71-.24a.93.93 0 00-.45.07l.76-.41c.32-.21.78-.19 1.28.1.97.56 1.76 1.92 1.76 3.04 0 .52-.18.9-.46 1.09-.07.04-.93.51-.93.51a.77.77 0 00.34-.35z" fill="#f90000"/><linearGradient id="SVGID_33_" gradientUnits="userSpaceOnUse" x1="383.933" y1="60.555" x2="387.454" y2="60.555"><stop offset="0" stop-color="#ff6f1b"/><stop offset="1" stop-color="#ff3933"/></linearGradient><path d="M384.53 58.37a.95.95 0 01.45-.07c.22.02.46.09.71.24.97.56 1.76 1.92 1.76 3.04 0 .31-.06.57-.17.77-.09.16-.2.28-.34.36-.32.18-.76.16-1.25-.13-.97-.56-1.76-1.92-1.76-3.04 0-.61.23-1.01.6-1.17z" fill="url(#SVGID_33_)"/><path class="st6" d="M382 59.28c.11-.2.17-.46.17-.77 0-1.12-.79-2.48-1.76-3.04-.25-.15-.49-.22-.71-.24a.93.93 0 00-.45.07l.76-.41c.32-.21.78-.19 1.28.1.97.56 1.76 1.92 1.76 3.04 0 .52-.17.9-.46 1.09-.07.04-.93.51-.93.51a.77.77 0 00.34-.35z"/><linearGradient id="SVGID_34_" gradientUnits="userSpaceOnUse" x1="378.656" y1="57.495" x2="382.178" y2="57.495"><stop offset="0" stop-color="#ffd33f"/><stop offset="1" stop-color="#ff7364"/></linearGradient><path d="M379.25 55.31a.95.95 0 01.45-.07c.22.02.46.09.71.24.97.56 1.76 1.92 1.76 3.04 0 .31-.06.57-.17.77-.09.16-.2.28-.34.36-.32.18-.76.16-1.25-.13-.97-.56-1.76-1.92-1.76-3.04.01-.61.24-1.01.6-1.17z" fill="url(#SVGID_34_)"/><path d="M376.77 56.22c.11-.2.17-.46.17-.77 0-1.12-.79-2.48-1.76-3.04-.25-.15-.49-.22-.71-.24a.93.93 0 00-.45.07l.76-.41c.32-.21.78-.19 1.28.1.97.56 1.76 1.92 1.76 3.04 0 .52-.17.9-.46 1.09-.07.04-.93.51-.93.51.14-.07.25-.19.34-.35z" fill="#40b8e2"/><path class="st15" d="M374.02 52.25a.95.95 0 01.45-.07c.22.02.46.09.71.24.97.56 1.76 1.92 1.76 3.04 0 .31-.06.57-.17.77-.09.16-.2.28-.34.36-.32.18-.76.16-1.25-.12-.97-.56-1.76-1.92-1.76-3.04 0-.62.23-1.02.6-1.18z"/><path class="st52" d="M712.73 369.5c-.44 2.46.22 5.26-1.21 7.31-1.55 2.21-7.24 3.66-10.63 7.75-5.68 6.86-1.42 18.03 8.73 19.89 10.04 1.84 15.16-7.56 10.04-15.89-2.58-4.19 1.58-3.85 3.03-6 .72-1.07 1.53-3.3.99-4.47s-.62-1.27-1.03-2.5c-1.85-5.53 5.01-3.3 6.04-7.86 1.81-7.94-14.15-8.27-15.96 1.77z"/><path class="st22" d="M716.69 387.4c-3.4 5.57-8.39 11.45-10.6 17.58-.13.37-.24.75-.36 1.12l5.05 1.59c.14-.41.28-.8.43-1.16 0 0 .76-1.58 1.1-2.13 3.9-6.39 4.79-7.42 8.99-14.31 1.8-2.94-2.82-5.62-4.61-2.69z"/><path class="st36" d="M687.63 472.66c-1.55-.89-4.28-.78-6.06.25l-2.36 1.36c-1.79 1.03-1.98 2.61-.44 3.5 1.55.89 4.28.78 6.06-.25l2.36-1.36c1.79-1.03 1.98-2.6.44-3.5zm18.44 7.98c-1.74-.42-4.32.45-5.75 1.94l-1.88 1.97c-1.43 1.49-1.17 3.06.57 3.48 1.74.42 4.32-.45 5.75-1.94l1.88-1.97c1.42-1.49 1.17-3.06-.57-3.48z"/><path class="st22" d="M723.57 441.22c-5.92 3.87-12.53 7.35-18.02 11.79-2.65 2.14-3.35 5.66-3.96 8.9-1.22 6.41-1.55 13.29.46 19.56 1.04 3.26 6.2 1.87 5.15-1.42-1.83-5.72-1.5-12.14-.22-17.95.82-3.74.69-4.11 3.41-5.89 5.29-3.46 10.58-6.92 15.87-10.39 2.86-1.87.19-6.49-2.69-4.6zm-34.84 31.44c1.74-6.74 3.41-13.51 5.21-20.24 2.26-8.42 9.85-11.64 16.7-15.9 2.91-1.81.23-6.43-2.7-4.61-7.77 4.84-16.07 8.62-18.89 18.08-2.09 6.99-3.65 14.18-5.48 21.25-.85 3.33 4.3 4.75 5.16 1.42z"/><path class="st36" d="M730.55 389.92c1.77 4.11 1.9 8.97 2 13.64.16 7.63.31 15.25.47 22.88.1 5.07.13 10.48-2.06 14.74-1.14 2.21-2.79 3.91-4.46 5.49a81.013 81.013 0 01-7.9 6.58c-.62.45-1.28.91-2 .95-.85.05-1.65-.47-2.39-.98-5.52-3.81-10.98-8.15-14.88-14.37-.73-1.17-1.43-2.51-1.42-4 .02-2.5 1.94-4.23 3.67-5.48 1.85-1.34 3.72-2.63 5.6-3.87 1.51-1 3.08-2.01 4.21-3.63 1.86-2.66 2.2-6.44 2.46-9.96l1.08-14.54c.24-3.3.51-6.7 1.75-9.63 3.54-8.45 10.91-4.69 13.87 2.18z"/><path class="st52" d="M728.84 368.38c-.02-.25-.03-.5-.06-.75-.01-.1-.04-.15-.07-.18 0-1.04-.39-1.86-1.34-2.74-1.42-1.31-3.28-2.28-5.25-2.28-1.69.01-2.86.43-4.06 1.57-.57.54-2.26 2.19-1.87 2.98.28.56.64.93 1.04 1.19 1.96 1.25 5.12-.48 6.94 1.69.3.35.56.75.67 1.19.18.69.04 1.53.6 1.99.05.04.1.06.15.09-.04-.19-.07-.39-.07-.61 0-.97.46-1.76 1.04-1.76.57 0 1.04.79 1.04 1.76 0 .89-.39 1.62-.9 1.73.04.12.06.25.06.39 0 .18.01.37.01.55.32-.34.6-.71.82-1.12.31-.59.54-1.21.77-1.84.1-.27.19-.54.27-.81.15-.53.22-1.08.24-1.63.02-.44 0-.93-.03-1.41z"/><path class="st22" d="M726.69 374.28c.51-.12.9-.84.9-1.73 0-.97-.46-1.76-1.04-1.76-.57 0-1.04.79-1.04 1.76 0 .21.03.42.07.61-.05-.03-.1-.05-.15-.09-.56-.45-.43-1.3-.6-1.99-.11-.44-.37-.84-.67-1.19-1.82-2.16-4.98-.44-6.94-1.69v4.72c0 2.9 2.17 5.27 4.97 5.65.03 1.46.05 2.92.08 4.38-.72.01-1.41.15-1.92.44-1.16.67-1.01 1.85.33 2.62l1.69.97c1.34.77 3.38.86 4.54.19 1.08-.62 1.01-1.69-.08-2.46.07-.16.12-.34.11-.54-.05-2.98-.11-5.96-.16-8.95 0-.18-.01-.37-.01-.55a2.24 2.24 0 00-.08-.39zm-24.86 51.49c-.69 3.35 4.46 4.79 5.15 1.42 1.26-6.17 2.14-14.55 3.81-19.5l-5.05-1.59c-2.02 6.2-2.61 13.32-3.91 19.67z"/><path class="st36" d="M698.96 444.23l18.39-10.62c.5-.29.5-1 0-1.29l-11.72-6.77c-.53-.3-1.17-.3-1.7 0l-18.49 10.68a.61.61 0 000 1.06l12.02 6.94c.46.27 1.03.27 1.5 0z"/><path class="st8" d="M698.6 443.36l17.75-10.24-11.99-6.92-17.75 10.24z"/><path class="st22" d="M702.78 425.11c1.29-.58 2.83 0 3.41 1.29.58 1.29 0 2.83-1.29 3.41l-3.73 1.68c-1.29.58-2.83 0-3.41-1.29a2.59 2.59 0 011.29-3.41l3.73-1.68z"/><path class="st22" d="M707.09 427.65c1.29-.58 2.83 0 3.41 1.29s0 2.83-1.29 3.41l-3.73 1.68c-1.29.58-2.83 0-3.41-1.29a2.59 2.59 0 011.29-3.41l3.73-1.68z"/><path class="st22" d="M725.89 391.19c.43 3.68.85 7.36 1.28 11.04.39 3.37 1.99 8.88.12 12.04-1.81 3.08-6.7 4.97-9.58 6.75-3.12 1.93-6.25 3.85-9.37 5.78-2.92 1.8-.24 6.42 2.69 4.61 3.57-2.2 7.14-4.4 10.7-6.6 3.49-2.15 8-4.17 10.16-7.84 2.34-3.98 1.34-8.41.84-12.71-.51-4.35-1.01-8.71-1.52-13.06-.37-3.38-5.71-3.42-5.32-.01zm-83.7 129.28l.38.07c1.42.25 2.81-.58 3.09-1.83l.94-4.22c.28-1.25-.65-2.48-2.07-2.73l-.38-.07c-1.42-.25-2.81.58-3.09 1.83l-.94 4.22c-.29 1.25.65 2.48 2.07 2.73zm4.8 54.9l.16.31c.59 1.17 2.16 1.69 3.48 1.17l4.44-1.77c1.32-.52 1.91-1.91 1.32-3.07l-.16-.31c-.59-1.17-2.16-1.69-3.48-1.17l-4.44 1.77c-1.32.53-1.92 1.91-1.32 3.07z"/><path class="st22" d="M641.8 516.32c3.47-1.27 4.99 3.73 1.55 4.98-4.45 1.62-9.22 3.8-13.89 6.37l-3.18-4.4c4.99-2.7 10.23-5.02 15.52-6.95z"/><linearGradient id="SVGID_35_" gradientUnits="userSpaceOnUse" x1="-1001.714" y1="533.131" x2="-977.241" y2="533.131" gradientTransform="matrix(-1 0 0 1 -372.256 0)"><stop offset=".011" stop-color="#9faffc"/><stop offset="1" stop-color="#e6f6ff"/></linearGradient><path d="M605.73 538.48c5.75-5.95 12.86-11.03 20.56-15.2l3.18 4.4c-7.26 4-14.31 8.99-19.6 14.46-2.46 2.52-6.57-1.14-4.14-3.66z" fill="url(#SVGID_35_)"/><path class="st12" d="M627.71 658.1c-1.69-.86-4.68-.75-6.64.24l-2.58 1.32c-1.96 1-2.17 2.52-.48 3.39 1.69.86 4.68.75 6.64-.24l2.58-1.32c1.96-1 2.17-2.53.48-3.39zm-17.98-8.4c-1.69-.86-4.68-.76-6.64.24l-2.58 1.32c-1.96 1-2.17 2.52-.48 3.39 1.69.86 4.68.75 6.64-.24l2.58-1.32c1.96-1 2.17-2.52.48-3.39z"/><path class="st52" d="M618.46 582.92c10.32 23.58 11.24 51.48 5.97 76.01-1.12 5.22-10.14 3.01-9.02-2.2 4.97-23.14 3.75-49.41-5.97-71.61-2.17-4.97 6.87-7.12 9.02-2.2z"/><path class="st52" d="M603.16 617.95c.28-9.51-3.34-19.07-6.66-28.27-.72-1.99.97-4.02 3.33-4.02h5.02c3.69 10.49 7.98 21.32 7.65 32.29-.32 10.88-3.96 21.98-6.3 32.62-1.14 5.22-10.16 3.01-9.02-2.2 2.19-9.91 5.68-20.28 5.98-30.42z"/><path class="st22" d="M650.24 572.58c3.33 1.55.38 6.01-2.95 4.46-6.24-2.91-12.97-5.5-19.04-8.75l3.16-4.38c6.02 3.2 12.63 5.78 18.83 8.67z"/><linearGradient id="SVGID_36_" gradientUnits="userSpaceOnUse" x1="-1003.657" y1="567.456" x2="-967.662" y2="567.456" gradientTransform="matrix(-1 0 0 1 -372.256 0)"><stop offset=".011" stop-color="#9faffc"/><stop offset="1" stop-color="#e6f6ff"/></linearGradient><path d="M599.37 572.43c4.48-33.36 4.12-34.92 8.62-35.87 5.96-1.26 10.28 4.88 11.53 9.81 1.2 2.35 2.4 4.71 3.6 7.06 1.72 3.37 3.06 7.58 6.74 9.65.51.28 1.02.55 1.54.83l-3.16 4.38c-.74-.4-1.47-.8-2.18-1.21-2.69-1.57-4.75-4.14-6.45-7.04-1.04 5.33-3.19 7.76-3.19 13.26 0 5.38 2.72 8.87 5.97 20.11 3.53 12.22-25.06-.68-26.57-5.6-1.84-5.94 3.11-12.16 3.55-15.38z" fill="url(#SVGID_36_)"/><path class="st22" d="M608.24 530.83l.18 7.71c.04 1.77 4.9 1.77 4.86 0l-.18-7.71c-.04-1.77-4.9-1.77-4.86 0z"/><path class="st22" d="M610.21 532.85c-.45 0-.87-.18-1.15-.48-2.13-2.27-2.05-6.79-.63-9.94.93-2.06 1.77-3 5.47-3.12.93-.03 3.5-.22 4.45.9.28.11.54.23.8.35v6.45c0 3.23-2.96 5.84-6.61 5.84h-2.33z"/><linearGradient id="SVGID_37_" gradientUnits="userSpaceOnUse" x1="-991.856" y1="524.761" x2="-977.552" y2="524.761" gradientTransform="matrix(-1 0 0 1 -372.256 0)"><stop offset=".292" stop-color="#4a5ea5"/><stop offset=".363" stop-color="#46599e"/><stop offset=".465" stop-color="#3b4c8b"/><stop offset=".585" stop-color="#28366d"/><stop offset=".627" stop-color="#212d60"/></linearGradient><path d="M617.06 524.88c-1.2.8-2.57 1.47-3.43 2.61-.73.96-1.03 2.17-1.7 3.17-.67 1-2.02 1.79-3.12 1.26-2.2-1.06-5.1-8.03-2.46-12.31 1.85-2.99 10.22-2.54 12.32-.78 2.16 1.8.12 4.9-1.61 6.05z" fill="url(#SVGID_37_)"/><path class="st22" d="M612.71 527.01c0 1.02.51 1.85 1.13 1.85.63 0 1.13-.83 1.13-1.85s-.51-1.85-1.13-1.85c-.62-.01-1.13.82-1.13 1.85zm1.46 13.06c1.18-.6 1.03-1.66-.33-2.36l-1.72-.88c-1.36-.7-3.45-.77-4.63-.17-1.18.6-1.03 1.66.33 2.36l1.72.88c1.36.7 3.45.77 4.63.17z"/><linearGradient id="SVGID_38_" gradientUnits="userSpaceOnUse" x1="-980.611" y1="547.392" x2="-953.104" y2="547.392" gradientTransform="matrix(-1 0 0 1 -372.256 0)"><stop offset=".292" stop-color="#4a5ea5"/><stop offset=".363" stop-color="#46599e"/><stop offset=".465" stop-color="#3b4c8b"/><stop offset=".585" stop-color="#28366d"/><stop offset=".627" stop-color="#212d60"/></linearGradient><path d="M600.75 529.54c-3.36 1.5-7.43 2.6-9.07 5.6-1.36 2.49-.52 5.5-1.36 8.16-1.25 3.97-5.84 6.36-8.09 9.97-2.92 4.68-1.03 11.17 3.94 14.22 4.97 3.05 12.29 2.48 16.77-1.12 4.47-3.6 5.85-9.79 3.53-14.73-.99-2.1-2.56-3.96-3.49-6.08-.94-2.12-1.12-4.73.51-6.49.88-.95 2.23-1.6 2.7-2.75.63-1.56-.66-3.24-.49-4.9.16-1.6 4.04-4.73 2.15-5.9-1.92-1.17-5.51 3.31-7.1 4.02z" fill="url(#SVGID_38_)"/><path class="st15" d="M446.39 518.96c.53 2.65-.27 5.66 1.46 7.87 1.87 2.38 8.75 3.94 12.84 8.35 6.86 7.39 1.71 19.42-10.54 21.42-12.14 1.98-18.32-8.14-12.13-17.11 1.9-2.75.78-3.69-.78-4.52 1.03-.16 1.91-.68 1.89-1.58l-.18-8.96c0-.19-.01-.37-.01-.56 0-.14-.03-.27-.07-.39.57-.12 1.01-.85 1.01-1.74 0-.97-.52-1.76-1.17-1.76s-1.17.79-1.17 1.76c0 .21.03.42.08.61-.06-.03-.12-.05-.17-.09-.63-.45-.48-1.3-.68-1.99-.13-.44-.24-1.28-.75-1.2-7.14 1.18-4.1-3.86-8.06-2.99-.07-.01-.07 2.52-.07 2.52-.35-.42-.62-.92-.78-1.55-2.19-8.55 17.1-8.9 19.28 1.91z"/><path class="st12" d="M435.39 661.99c-1.82-.96-5.01-.84-7.11.27l-2.76 1.47c-2.1 1.11-2.33 2.81-.51 3.77s5.01.84 7.11-.27l2.76-1.47c2.09-1.11 2.32-2.8.51-3.77zm28.11-24.01c-2.09-.17-4.94 1.17-6.33 2.98l-1.84 2.39c-1.4 1.82-.83 3.44 1.26 3.62 2.09.17 4.94-1.17 6.33-2.98l1.84-2.39c1.39-1.82.82-3.45-1.26-3.62z"/><path class="st22" d="M425.26 602.16c.08-.98.17-1.96.22-2.94l.99-19.67c.08-1.66 1.11-2.49 1.95-2.89 1.31-.62 3.04-.58 4.2.1.96.56 1.43 1.49 1.37 2.69l-.91 18.04c-.05.96-.18 2.03-.32 3.16-.47 3.84-.96 7.81 1.32 10.08 6.12 6.07 12.61 12.01 18.89 17.75 3.19 2.92 6.37 5.83 9.52 8.77 1.76 1.64 1.18 3.61-.17 4.83-1.32 1.19-3.41 1.67-5.13.06-3.25-3.04-6.63-6.08-9.9-9.02-6.54-5.89-13.31-11.98-19.4-18.34-3.4-3.55-3.03-7.96-2.63-12.62z"/><path class="st22" d="M449.47 587.45c-11.45 20.93-14.38 48.74-12.66 72.78.42 5.9-7.59 5.87-8.01 0-1.83-25.56 1.6-55.21 13.75-77.42 2.74-5 9.67-.39 6.92 4.64z"/><linearGradient id="SVGID_39_" gradientUnits="userSpaceOnUse" x1="424.835" y1="599.126" x2="451.379" y2="599.126"><stop offset=".292" stop-color="#4a5ea5"/><stop offset=".363" stop-color="#46599e"/><stop offset=".465" stop-color="#3b4c8b"/><stop offset=".585" stop-color="#28366d"/><stop offset=".627" stop-color="#212d60"/></linearGradient><path d="M425.08 607.46s3.24 6.32 14.61 7.67l11.69-23.48-25.88-8.53s-1.15 15.91-.42 24.34z" fill="url(#SVGID_39_)"/><path class="st67" d="M422.8 558.83c.01-.01 3.35 3.82 3.35 3.82-1.2.84-2.53 1.62-3.77 2.35l-3.19-3.67c1.21-.83 2.41-1.67 3.61-2.5z"/><path class="st22" d="M406.37 570.24c3.37-2.34 6.75-4.69 10.13-7.03.9-.63 1.8-1.25 2.7-1.88l3.19 3.67c-.87.52-1.69 1.01-2.37 1.49-3.71 2.57-7.41 5.14-11.12 7.72-2.58 1.78-5.08-2.21-2.53-3.97z"/><path class="st36" d="M432.06 533.83c.44-.27.95-.48 1.55-.69 2.8-.96 5.46-.31 7.73 1.12l-7.75 57.19c-.74-.33-1.44-.68-2.11-1.04l.58-56.58z"/><path class="st12" d="M429.61 559.05c-.17.35-.36.68-.57.97-.68.94-1.72 1.81-2.9 2.63l-3.34-3.83c.56-.39 1.82-1.26 1.82-1.26s3.66-13.82 5.56-21.02c.08-.31.22-.56.38-.77.36-.96.84-1.53 1.5-1.94l-.58 56.57c-2.62-1.41-4.61-2.97-5.23-4.22-2.79-5.66 3.41-12.79 3.41-16.05-.02-4.16-.03-7.83-.05-11.08z"/><path class="st67" d="M459.27 564.31l5.05-.85c.29 1.18.56 2.36.84 3.52l-4.84.9c-.35-1.18-.69-2.38-1.05-3.57z"/><path class="st22" d="M465.16 566.99c.25 1.04.51 2.05.79 3.03 1.25 4.27 2.5 8.55 3.76 12.82.84 2.86-3.99 4.08-4.83 1.22-1.57-5.36-3-10.79-4.55-16.18l4.83-.89z"/><path d="M457.5 558.14c-.1-.14-.23-.27-.34-.4-.3-.94.68.88.34.4z" fill="#2b1c3c"/><path class="st12" d="M441.33 534.26c.81.51 1.57 1.12 2.27 1.8.32.08.65.26.96.6 3.17 3.5 6.33 7 9.5 10.51 2.53 2.79 6.21 5.75 7.85 9.08 1.08 2.19 1.79 4.7 2.4 7.22l-5.05.85c-.66-2.17-1.34-4.34-2.08-6.48-.01-.04-.02-.06-.03-.09.12.13.24.26.34.4.34.48-.64-1.34-.34-.4-.32-.38-.68-.74-1.01-1.09-1.91-2.04-3.75-4.15-5.63-6.22-.49-.54-.95-1.05-1.4-1.55 1.53 9.92-1.6 11.85-.56 19.03.78 5.37 6.77 9.26 4 20.98-1.74 7.34-11.76 5.8-18.97 2.56l7.75-57.2z"/><path class="st22" d="M439.97 536.09c1.09-.58.95-1.6-.31-2.26l-1.58-.84c-1.26-.67-3.18-.74-4.27-.16-1.09.58-.95 1.6.31 2.26l1.58.84c1.26.66 3.18.74 4.27.16z"/><path class="st15" d="M433.8 528.04c.03 1.42.06 2.83.08 4.25-.7-1.25-1.26-3.04-.72-4.08.03-.06.06-.11.09-.17h.55z"/><path class="st22" d="M427.95 516.08c3.97-.87.93 4.17 8.06 2.99.51-.08.63.75.75 1.2.2.69.05 1.53.68 1.99.05.04.11.06.17.09-.05-.19-.08-.39-.08-.61 0-.97.52-1.76 1.17-1.76s1.17.79 1.17 1.76c0 .89-.44 1.62-1.01 1.74.04.12.07.25.07.39 0 .19.01.37.01.56l.18 8.96c.02.9-.85 1.42-1.89 1.58-1.48.23-3.3-.29-3.33-1.58-.01-.37-.01-.73-.02-1.1-.03-1.42-.06-2.83-.08-4.25h-.54c-2.97 0-5.38-2.15-5.38-4.79v-7.18c.03-.01.04.01.07.01zm-26.31 58.89c.69 1.3 2.41 1.85 3.84 1.22l3.19-1.42c1.42-.63 2.02-2.22 1.33-3.52-.69-1.3-2.41-1.85-3.83-1.22l-3.19 1.42c-1.43.64-2.02 2.22-1.34 3.52zm64.84 15.1c1.57.17 3-.87 3.19-2.3l.42-3.23c.19-1.44-.94-2.76-2.51-2.93-1.57-.17-3 .87-3.19 2.3l-.42 3.23c-.18 1.44.95 2.75 2.51 2.93z"/><path class="st15" d="M308.75 70.59l9.6-14.21c1.2-1.78 3.92-1.41 4.6.63l2.17 6.51c.49 1.48 2.39 1.91 3.47.78l10.3-10.69c1.75-1.81 4.79-1.14 5.61 1.24l7.49 21.68c1.36 3.92 6.17 5.34 9.43 2.77l1.15-.9c1.25-.99 3.11-.36 3.51 1.18l7.08 27.18-64.41-36.17z"/><path class="st1" d="M499.29 178.81c-.13 0-.26-.03-.37-.1l-106.59-62.38a.736.736 0 11.75-1.27l105.48 61.73v-23.77c0-.41.33-.74.74-.74s.74.33.74.74v25.05a.74.74 0 01-.75.74z"/><linearGradient id="SVGID_40_" gradientUnits="userSpaceOnUse" x1="506.73" y1="127.193" x2="698.268" y2="127.193"><stop offset="0" stop-color="#eaeaf9"/><stop offset="1" stop-color="#bebeed"/></linearGradient><path d="M635.18 92.93c-21.72-51.5-70.35-85.21-98.2-66.39l-30.25 17.63c28.47-14.01 73.69 18.92 94.7 68.39 17.09 3.98 40.22 20.51 56.66 58.87 8.25 21.51 10.53 49.92-6.5 61.69l32.68-18.87s-.05-.01-.13-.02c35.21-20.79-.76-110.08-48.96-121.3zm57.7 62.03c-.09.04-.25.12-.44.21l.44-.21z" fill="url(#SVGID_40_)"/><path d="M501.55 47.19l1.46-.85c-.41.28-.81.59-1.21.89l-.25-.04z" fill="#f2e8ea"/><linearGradient id="SVGID_41_" gradientUnits="userSpaceOnUse" x1="453.903" y1="67.763" x2="497.376" y2="67.763"><stop offset="0" stop-color="#eaeaf9"/><stop offset="1" stop-color="#bebeed"/></linearGradient><path d="M475.48 75.28c-8.29-4.79-15.85-5.58-21.58-3.01l31.14-18.15c3.35-2.38 7.57-3.35 12.33-2.75-6.51 7.41-10.35 18.58-10.45 32.94-3.56-3.59-7.4-6.7-11.44-9.03z" fill="url(#SVGID_41_)"/><path class="st5" d="M549.09 49.48c1.22.7 2.42 1.45 3.62 2.22.3.2.6.39.91.59 1.16.77 2.32 1.56 3.46 2.38.2.14.39.3.59.44.95.7 1.89 1.42 2.83 2.17l1.16.92c1.01.82 2.02 1.67 3.01 2.53.44.38.87.78 1.31 1.18.61.55 1.22 1.11 1.82 1.67.53.5 1.07 1.01 1.6 1.52.52.51 1.04 1.04 1.56 1.56.95.96 1.9 1.94 2.83 2.95.27.29.54.59.81.88 2.18 2.38 4.29 4.87 6.32 7.44 2.15 2.72 4.21 5.53 6.19 8.42 4.05 5.94 7.7 12.2 10.86 18.65.17.35.34.69.51 1.04.99 2.05 1.94 4.1 2.82 6.18.05.12.11.23.15.35 1.12.26 2.25.57 3.39.94 3.44 1.1 7.02 2.7 10.69 4.82a69.507 69.507 0 013.92 2.46c.77.51 1.53 1.04 2.28 1.59.27.19.53.38.8.58.99.74 1.97 1.49 2.94 2.28.08.07.16.14.25.21a79.611 79.611 0 013.4 2.95c.77.7 1.54 1.42 2.3 2.16.18.18.37.35.55.53.95.93 1.88 1.89 2.8 2.87.07.07.13.14.2.22.85.91 1.68 1.84 2.5 2.79.17.2.35.4.52.61.81.95 1.62 1.92 2.4 2.91.06.07.11.14.17.21.89 1.13 1.77 2.28 2.62 3.44l.06.09c.81 1.11 1.59 2.23 2.37 3.37.09.13.18.27.27.41 2.43 3.61 4.67 7.37 6.69 11.23.03.05.05.1.08.15 2.05 3.94 3.88 7.97 5.44 12.05 1.48 3.85 2.72 7.72 3.7 11.59l.12.49c.29 1.17.56 2.35.8 3.52.02.08.04.17.05.25.26 1.27.49 2.53.69 3.79.02.11.03.21.05.32.16 1.07.31 2.13.43 3.19.04.34.07.68.11 1.01.09.87.16 1.73.21 2.59.02.34.05.68.06 1.02.06 1.15.1 2.3.1 3.43 0 6.4-.93 12-2.64 16.73-.49 1.35-1.04 2.63-1.66 3.84-1.84 3.62-4.23 6.59-7.06 8.84-.47.38-.96.73-1.46 1.07-8.94 6.05-21.79 5.66-36.08-2.59l-142.03-82v-.12c-16.97-10.99-30.42-34.88-30.42-54.65 0-11.03 4.19-18.52 10.84-21.49 5.73-2.56 13.29-1.77 21.58 3.01 4.03 2.33 7.88 5.43 11.44 9.03.11-14.35 3.95-25.52 10.45-32.94 1.36-1.55 2.84-2.93 4.42-4.15.4-.31.8-.61 1.21-.89 1.18-.82 2.43-1.53 3.72-2.17 11.11-5.45 25.99-4.13 42.37 5.32z"/></g></switch></svg>